<svg width="30" height="30" viewBox="0 0 30 30" fill="none" xmlns="http://www.w3.org/2000/svg">
<path fill-rule="evenodd" clip-rule="evenodd" d="M14.401 0H15.6771C16.6927 0.0520833 17.7083 0.182292 18.724 0.442708C23.099 1.5625 26.6667 4.55729 28.6198 8.64583C29.6875 10.8594 30 12.8125 30 15.5208C30 19.4531 27.6823 24.1667 24.6615 26.4844C23.151 27.6563 21.9792 28.4635 20.0521 29.1406C19.5833 29.2969 19.1667 29.4271 18.6719 29.5573C17.0052 29.974 16.1979 30 14.5573 30H14.4792C12.4219 30 10 29.2708 8.61979 28.5938C7.63021 28.099 7.21354 27.8646 6.32813 27.2396C5.625 26.7448 5 26.224 4.375 25.625C3.72396 24.974 2.8125 23.9063 2.34375 23.099C2.23958 22.8906 2.13542 22.7604 2.00521 22.5521C1.51042 21.6406 1.19792 21.0677 0.859375 20.0781C0.130208 17.9948 0 16.7708 0 14.5313C0 12.7344 0.572917 10.2344 1.38021 8.64583C2.65625 6.11979 4.45313 3.80208 6.90104 2.34375L8.64583 1.38021C9.03646 1.19792 9.50521 0.989583 9.92188 0.859375C11.3802 0.364583 12.8906 0.0520833 14.401 0ZM12.2396 21.849C12.2917 21.0156 12.3438 20.1563 12.4219 19.3229C12.5 18.0729 12.3177 18.125 13.1771 17.4219L14.6094 16.1458C14.7656 16.0156 14.8177 15.9375 14.974 15.8073C15.5729 15.3125 16.1458 14.7396 16.6927 14.2448L19.5052 11.7188C19.8438 11.25 19.0104 11.5885 18.8802 11.6927C16.25 13.4115 13.4115 15.1302 10.7292 16.8229C10.3125 17.0833 10.2083 16.9271 9.71354 16.7708L6.69271 15.8333C5.625 15.4427 6.32813 14.8698 7.00521 14.6094L20.4427 9.42708C21.0156 9.21875 21.901 8.69792 22.3177 9.32292C22.6042 9.79167 22.2396 11.0156 22.1094 11.5625C21.4583 14.4792 20.8333 17.4479 20.2344 20.3646C19.7917 22.5 19.7656 23.4375 17.8646 21.9531C17.3698 21.5625 16.875 21.1979 16.3542 20.8333L14.8438 19.7135C14.0365 20.2604 13.125 21.7969 12.2396 21.849Z" fill="#039BE4"/>
<path fill-rule="evenodd" clip-rule="evenodd" d="M12.2397 21.8491C13.1251 21.771 14.0365 20.2605 14.8178 19.7658L16.3282 20.8855C16.849 21.2501 17.3438 21.6147 17.8386 22.0053C19.7397 23.4637 19.7657 22.5522 20.2084 20.4168C20.8074 17.5001 21.4324 14.5314 22.0834 11.6147C22.2136 11.0678 22.5782 9.81783 22.2917 9.37513C21.8751 8.72408 20.9897 9.24492 20.4167 9.47929L6.9532 14.6355C6.27611 14.896 5.57299 15.4689 6.6407 15.8595L9.66153 16.797C10.1563 16.9533 10.2605 17.1095 10.6772 16.8491C13.3594 15.1303 16.198 13.4376 18.8282 11.7189C18.9844 11.6147 19.8178 11.2762 19.4532 11.7449L16.6667 14.271C16.0938 14.7658 15.5469 15.3387 14.948 15.8335C14.7917 15.9637 14.7397 16.0418 14.5834 16.172L13.1511 17.448C12.2917 18.1512 12.474 18.073 12.3959 19.3491C12.3438 20.1824 12.2917 21.0158 12.2397 21.8491Z" fill="#FDFEFF"/>
</svg>
