<svg width="30" height="30" viewBox="0 0 30 30" fill="none" xmlns="http://www.w3.org/2000/svg">
<path fill-rule="evenodd" clip-rule="evenodd" d="M15.4131 6.40275H18.2272C18.3046 8.31325 19.3632 9.75904 20.938 10.3787C22.7969 11.1274 22.5904 9.52668 22.5904 13.5026C20.0086 13.4251 19.5955 12.7022 18.253 12.0826V17.9432C18.253 23.4423 12.0826 25.2754 8.95869 21.9191C5.62823 18.3046 8.20998 12.6248 13.6833 13.012V15.852C12.3408 15.6713 11.4114 15.9811 10.7917 16.8589C10.1205 17.8141 10.3528 19.1824 10.9466 19.9312C12.1084 21.3769 15.4131 21.1962 15.4389 17.9432V15.1291V6.40275H15.4131ZM15 0C23.2874 0 30 6.71257 30 15C30 23.2874 23.2874 30 15 30C6.71256 30 0 23.2874 0 15C0.0258176 6.71257 6.73838 0 15 0Z" fill="black"/>
</svg>
