<svg width="10" height="5" viewBox="0 0 10 5" fill="none" xmlns="http://www.w3.org/2000/svg">
<path fill-rule="evenodd" clip-rule="evenodd" d="M5.00031 2.83277C5.08698 2.76137 5.17228 2.68913 5.25384 2.62275C5.60072 2.34002 5.94631 2.05605 6.29146 1.77196C6.84785 1.31421 7.40179 0.854263 7.9589 0.397094C8.2622 0.148357 8.4853 0.000118025 8.94172 0.000118025C9.50451 0.000118025 9.99998 0.406654 9.99998 0.868426C9.99998 1.14844 9.93892 1.26711 9.73423 1.48269C9.63606 1.58613 9.48423 1.70215 9.37095 1.79634C9.16008 1.97178 8.94769 2.14604 8.73516 2.32001C8.40137 2.59348 8.06528 2.86529 7.73177 3.13893L6.03607 4.53026C5.74428 4.76962 5.48565 5.00006 5.03556 5.00006C4.69429 5.00006 4.54958 4.94996 4.28685 4.78201C4.0869 4.65425 3.84496 4.43655 3.66213 4.2879C3.27641 3.97419 2.89249 3.65883 2.50886 3.34335C1.86278 2.81194 1.21944 2.27823 0.572572 1.74759C0.232596 1.46852 0 1.29928 0 0.868308C0 0.406536 0.495472 0 1.05826 0C1.52511 0 1.74088 0.150659 2.05 0.404235C2.60574 0.860282 3.15846 1.31893 3.71356 1.77556C4.05799 2.059 4.40271 2.34226 4.7488 2.62434C4.82979 2.69037 4.91444 2.76196 5.00024 2.83265L5.00031 2.83277Z" fill="white"/>
</svg>
