<?xml version="1.0" standalone="no"?>
<!DOCTYPE svg PUBLIC "-//W3C//DTD SVG 20010904//EN"
 "http://www.w3.org/TR/2001/REC-SVG-20010904/DTD/svg10.dtd">
<svg version="1.0" xmlns="http://www.w3.org/2000/svg"
 width="150.000000pt" height="150.000000pt" viewBox="0 0 150.000000 150.000000"
 preserveAspectRatio="xMidYMid meet">
<metadata>
Created by potrace 1.14, written by Peter Selinger 2001-2017
</metadata>
<g transform="translate(0.000000,150.000000) scale(0.100000,-0.100000)"
fill="#000000" stroke="none">
<path d="M0 750 l0 -750 750 0 750 0 0 750 0 750 -750 0 -750 0 0 -750z m880
584 l0 -36 39 31 c21 17 42 31 45 31 3 0 6 -13 6 -30 l0 -30 190 0 190 0 0
-575 0 -575 -595 0 -595 0 0 130 0 130 -30 0 -31 0 26 38 25 37 -25 3 c-17 2
-25 9 -25 23 0 18 6 20 73 17 56 -2 72 -6 72 -18 0 -9 -11 -16 -28 -18 -33 -4
-33 -6 0 -46 l26 -31 -31 -3 -32 -3 0 -120 0 -119 575 0 575 0 0 555 0 555
-180 0 -180 0 0 -31 0 -31 -42 32 -43 31 -3 -31 c-2 -22 -8 -30 -23 -30 -14 0
-19 7 -19 30 l0 30 -330 0 -330 0 0 -145 c0 -90 -4 -145 -10 -145 -6 0 -10 58
-10 155 l0 155 340 0 340 0 0 28 c0 32 7 42 27 42 8 0 13 -13 13 -36z m219 9
c-1 -23 -2 -24 -6 -6 -2 12 -12 24 -21 26 -12 3 -10 5 6 6 18 1 22 -4 21 -26z
m70 5 c-1 -17 -2 -19 -6 -5 -2 9 -9 17 -15 17 -5 0 -8 -6 -5 -13 3 -8 1 -20
-4 -28 -6 -10 -9 -4 -9 19 0 25 4 32 20 32 14 0 20 -6 19 -22z m51 7 c0 10 2
16 5 13 10 -9 -6 -58 -19 -58 -6 0 -11 14 -11 30 0 27 1 28 13 13 11 -16 12
-16 12 2z m64 7 c-6 -4 -14 -14 -17 -22 -4 -10 -6 -8 -6 8 -1 15 5 22 17 22
10 0 13 -3 6 -8z m46 -2 c-13 -8 -12 -10 5 -11 17 -1 17 -2 3 -6 -10 -2 -18
-10 -18 -16 0 -7 -4 -6 -10 3 -10 16 4 40 24 40 6 0 4 -5 -4 -10z m-256 -25
c3 -8 1 -15 -4 -15 -6 0 -10 7 -10 15 0 8 2 15 4 15 2 0 6 -7 10 -15z m332
-69 c0 -16 -7 -27 -19 -30 -15 -4 -16 -2 -6 10 9 11 8 14 -2 15 -10 0 -11 2
-1 6 6 2 10 9 6 14 -3 5 1 9 8 9 8 0 14 -10 14 -24z m14 -60 c0 -9 -40 -13
-46 -5 -3 5 6 9 20 9 14 0 26 -2 26 -4z m-15 -26 c3 -6 -4 -10 -17 -10 -18 0
-20 2 -8 10 19 12 18 12 25 0z m10 -50 c4 -6 -6 -10 -22 -9 -25 0 -26 1 -8 9
11 5 21 9 22 9 1 1 5 -3 8 -9z m2 -55 c0 -10 -6 -14 -14 -10 -8 3 -20 5 -26 6
-7 1 -1 5 13 9 14 4 25 8 26 9 0 1 1 -6 1 -14z m-8 -67 c-1 -21 -2 -21 -7 -3
-5 20 -5 20 -12 1 -6 -19 -7 -19 -12 2 -5 17 -2 22 13 22 13 0 19 -7 18 -22z
m1 -94 c0 -8 -9 -14 -20 -14 -19 0 -27 19 -14 33 10 9 34 -4 34 -19z m-1140
-3 c5 -11 10 -40 10 -64 l0 -44 -47 -1 c-51 -1 -73 10 -73 39 0 22 29 39 65
39 40 0 25 25 -16 26 -51 2 -55 3 -39 14 27 18 88 12 100 -9z m167 7 c5 -7 10
-34 11 -60 1 -42 -1 -48 -22 -54 -13 -3 -38 -4 -57 -2 l-34 3 0 62 0 63 46 0
c26 0 51 -6 56 -12z m173 2 c0 -5 -11 -10 -25 -10 -24 0 -25 -3 -25 -55 0 -42
-3 -55 -15 -55 -12 0 -15 13 -15 55 0 52 -1 55 -25 55 -14 0 -25 5 -25 10 0 6
28 10 65 10 37 0 65 -4 65 -10z m135 -4 c13 -9 19 -26 19 -51 0 -44 -22 -65
-70 -65 -55 0 -85 70 -47 112 19 21 71 24 98 4z m662 -66 c1 -14 -4 -20 -18
-20 -12 0 -19 7 -19 20 0 13 7 20 18 20 11 0 18 -8 19 -20z m3 -59 c0 -5 -9
-7 -20 -4 -11 3 -20 7 -20 9 0 2 9 4 20 4 11 0 20 -4 20 -9z m-1120 -53 c44
-48 1 -127 -62 -114 -25 5 -28 2 -28 -19 0 -16 -6 -25 -15 -25 -12 0 -15 16
-15 88 l0 87 50 2 c40 2 54 -2 70 -19z m170 2 c11 -11 20 -29 20 -40 0 -17 -7
-20 -51 -20 -36 0 -49 -4 -46 -12 2 -8 21 -13 46 -12 45 1 53 -9 20 -26 -24
-14 -61 -6 -83 16 -38 37 -4 114 49 114 14 0 34 -9 45 -20z m174 4 c19 -18 20
-30 5 -40 -8 -4 -8 -9 0 -17 33 -33 -10 -71 -73 -65 -30 3 -31 5 -34 57 -2 29
-1 60 2 67 7 19 81 18 100 -2z m164 -1 c12 -10 22 -27 24 -38 3 -17 -4 -21
-51 -25 -48 -4 -52 -7 -38 -19 11 -8 28 -11 47 -7 41 8 41 -20 1 -29 -71 -15
-118 60 -69 112 26 27 58 30 86 6z m199 -9 c19 -19 23 -31 19 -52 -10 -42 -44
-65 -83 -57 -31 6 -34 4 -31 -17 2 -13 -1 -25 -7 -28 -6 -3 -11 29 -13 85 l-3
91 46 2 c38 1 51 -3 72 -24z m169 12 c25 -19 11 -32 -20 -18 -45 20 -89 -37
-51 -68 9 -8 28 -10 50 -6 39 8 47 -7 14 -24 -24 -13 -73 -5 -90 16 -7 8 -12
29 -12 46 0 55 64 87 109 54z m241 -2 c8 -21 -13 -42 -28 -27 -13 13 -5 43 11
43 6 0 13 -7 17 -16z"/>
<path d="M863 1290 c0 -36 2 -50 4 -32 2 17 2 47 0 65 -2 17 -4 3 -4 -33z"/>
<path d="M923 1315 l-28 -25 25 -20 c36 -28 40 -25 40 25 0 25 -2 45 -4 45 -3
0 -18 -11 -33 -25z"/>
<path d="M111 516 c8 -8 119 -12 119 -4 0 4 -28 8 -62 8 -34 0 -59 -2 -57 -4z"/>
<path d="M142 450 l-23 -30 51 0 51 0 -21 30 c-12 17 -25 30 -29 30 -4 0 -17
-13 -29 -30z"/>
<path d="M197 853 c-17 -17 -6 -34 20 -31 36 4 45 38 10 38 -13 0 -27 -3 -30
-7z"/>
<path d="M360 895 c0 -10 10 -15 30 -15 20 0 30 5 30 15 0 10 -10 15 -30 15
-20 0 -30 -5 -30 -15z"/>
<path d="M360 839 c0 -14 7 -19 29 -19 52 0 46 35 -6 38 -16 0 -23 -5 -23 -19z"/>
<path d="M670 896 c-28 -35 11 -93 48 -70 35 22 22 84 -18 84 -10 0 -23 -7
-30 -14z"/>
<path d="M207 724 c-4 -4 -7 -20 -7 -35 0 -22 6 -30 25 -35 40 -10 57 2 53 38
-3 29 -7 33 -33 36 -17 2 -34 0 -38 -4z"/>
<path d="M397 729 c-28 -16 -20 -29 18 -29 38 0 46 13 17 29 -11 6 -24 6 -35
0z"/>
<path d="M560 720 c0 -17 5 -21 28 -18 16 2 27 9 27 18 0 9 -11 16 -27 18 -23
3 -28 -1 -28 -18z"/>
<path d="M560 661 c0 -13 6 -18 18 -16 9 2 23 4 30 4 6 1 12 8 12 16 0 10 -10
15 -30 15 -23 0 -30 -5 -30 -19z"/>
<path d="M738 729 c-30 -17 -20 -29 22 -29 43 0 52 13 21 30 -23 12 -22 12
-43 -1z"/>
<path d="M919 719 c-25 -25 -12 -63 23 -67 31 -4 52 20 44 52 -8 32 -42 40
-67 15z"/>
<path d="M1380 735 c0 -8 5 -15 10 -15 6 0 10 7 10 15 0 8 -4 15 -10 15 -5 0
-10 -7 -10 -15z"/>
</g>
</svg>
