<svg width="97" height="72" viewBox="0 0 97 72" fill="none" xmlns="http://www.w3.org/2000/svg">
<path fill-rule="evenodd" clip-rule="evenodd" d="M0 55.2998H10.2C12.8 49.3998 22.1 45.8998 29.4 50.3998C31.1 51.4998 33.2 53.3998 34.1 55.2998H62.3V19.0998C62.3 16.6998 62.6 6.79979 61.9 4.89979C60.1 0.39979 55 1.09979 50.9 1.09979C47.6 1.09979 44.2 1.09979 40.9 1.09979V17.0998C40 16.9998 40.7 17.0998 40.4 16.7998C40 16.1998 39 15.1998 38.4 14.8998L36 17.1998C35.3 16.4998 34.3 15.2998 33.5 14.8998L31.2 17.1998L28.9 14.8998C28.3 15.1998 26.7 16.6998 26.3 17.1998C25.5 16.4998 24.6 15.2998 23.8 14.8998L21.4 16.9998V1.19979V0.99979C18.1 0.99979 5.5 0.49979 3.3 1.69979C1 2.99979 0 4.99979 0 7.59979V55.2998Z" fill="#FFD05C"/>
<path fill-rule="evenodd" clip-rule="evenodd" d="M25.8 63.1997C24.4 68.0997 17 65.9997 18.3 61.0997C19.7 56.2997 27.3 58.1997 25.8 63.1997ZM96.4 55.2997V62.2997H88.5C88 63.2997 88 66.6997 85.3 69.0997C83.6 70.6997 80.9 71.9997 78.5 71.8997C76 71.7997 73.4 70.6997 71.8 68.9997C70.8 67.9997 70.4 67.2997 69.8 66.0997C69.4 65.1997 68.7 63.4997 69.1 62.2997H32C31.5 63.1997 31.8 64.1997 30.9 66.0997C30.5 66.9997 29.6 68.3997 28.9 68.9997L27.6 70.0997C23.8 72.6997 19.6 72.3997 15.9 69.4997C14.8 68.5997 13.9 67.3997 13.3 66.0997C12.9 65.2997 12.2 63.2997 12.6 62.2997H0V55.3997H10.2C12.8 49.4997 22.1 45.9997 29.4 50.4997C31.1 51.5997 33.2 53.4997 34.1 55.3997H62.3C68.6 55.3997 65.5 55.7997 68.4 52.7997C73.2 47.8997 80.4 46.8997 85.8 50.3997C87.4 51.4997 89.7 53.4997 90.4 55.2997H94.8H96.4ZM74.7 62.7997C73.8 57.5997 81.7 56.4997 82.4 61.4997C83.1 66.6997 75.5 67.6997 74.7 62.7997Z" fill="#334A5E"/>
<path fill-rule="evenodd" clip-rule="evenodd" d="M62.3002 55.3C68.6002 55.3 65.5002 55.7 68.4002 52.7C73.2002 47.8 80.4002 46.8 85.8002 50.3C87.4002 51.4 89.7002 53.4 90.4002 55.2H94.8002C94.8002 52 95.2002 40.3 94.6002 38.2L90.7002 25C88.6002 20.1 84.7002 19 79.5002 19C73.7002 19 68.0002 19 62.2002 19L62.3002 55.3ZM67.0002 23.8C70.2002 23.9 73.4002 23.8 76.6002 23.8C85.8002 23.8 85.6002 23.5 87.9002 31.4C88.6002 33.9 89.4002 36.3 90.0002 38.8L89.4002 39C89.3002 39 88.8002 39 88.6002 39C84.6002 39 67.6002 39.2 66.7002 38.8C66.7002 36.2 66.7002 33.7 66.7002 31.1C66.7002 30.3 66.4002 24.1 67.0002 23.8Z" fill="#FE7058"/>
<path fill-rule="evenodd" clip-rule="evenodd" d="M40.2999 16.7998C40.6999 16.3998 40.5999 17.3998 40.6999 15.7998V1.2998H21.3999V17.0998L23.6999 14.8998C24.5999 15.2998 25.4999 16.5998 26.1999 17.1998C26.5999 16.6998 28.1999 15.0998 28.7999 14.8998L31.0999 17.1998L33.3999 14.8998C34.1999 15.2998 35.1999 16.5998 35.8999 17.1998L38.1999 14.8998C38.8999 15.1998 39.9999 16.1998 40.2999 16.7998Z" fill="#F2F2F2"/>
<path fill-rule="evenodd" clip-rule="evenodd" d="M90.1 38.7998C89.1 38.4998 87.9 37.4998 87 36.8998C84.8 35.5998 67.6 24.5998 67 23.7998C66.4 24.0998 66.7 30.2998 66.7 31.1998C66.7 33.7998 66.7 36.2998 66.7 38.8998C67.7 39.1998 84.6 38.9998 88.6 39.0998C88.8 39.0998 89.2 39.0998 89.4 39.0998L90.1 38.7998Z" fill="#CDD6E0"/>
<path fill-rule="evenodd" clip-rule="evenodd" d="M90.1001 38.8003C89.4001 36.3003 88.7001 33.8003 88.0001 31.4003C85.7001 23.5003 85.9001 23.8003 76.7001 23.8003C73.5001 23.8003 70.3001 23.9003 67.1001 23.8003C67.7001 24.6003 84.9001 35.6003 87.0001 36.9003C87.9001 37.5003 89.1001 38.5003 90.1001 38.8003Z" fill="#F2F2F2"/>
<path fill-rule="evenodd" clip-rule="evenodd" d="M74.7001 62.8C75.5001 67.6 83.1001 66.6 82.4001 61.5C81.7001 56.5 73.9001 57.6 74.7001 62.8Z" fill="#ABB2B9"/>
<path fill-rule="evenodd" clip-rule="evenodd" d="M25.7999 63.1996C27.2999 58.1996 19.6999 56.2996 18.2999 61.0996C16.9999 65.9996 24.3999 68.0996 25.7999 63.1996Z" fill="#ABB2B9"/>
<path fill-rule="evenodd" clip-rule="evenodd" d="M40.2999 16.7996C40.5999 17.0996 39.8999 16.9996 40.7999 17.0996V1.09961H21.3999V1.29961H40.6999V15.7996C40.5999 17.3996 40.7999 16.3996 40.2999 16.7996Z" fill="#F8E4B2"/>
</svg>
