<svg width="73" height="73" viewBox="0 0 73 73" fill="none" xmlns="http://www.w3.org/2000/svg">
<g clip-path="url(#clip0_150_177)">
<path fill-rule="evenodd" clip-rule="evenodd" d="M28.6 40.6C29.3 39.5 29.1 37.3 28.8 36C28.6 35.2 29.1 35 29.6 34.5C30.9 33.2 32.4 31.3 34.7 32.3C35.8 32.8 36.6 34.4 37.5 34.7L40 32C39.8 31.8 39.7 31.8 39.5 31.6C38.3 30.6 31.7 24.3 31.1 24.1C31.2 23.6 31.5 23.1 31.7 22.4C31.9 21.8 32 21.2 32.1 20.6C32.7 16.7 32 12.6 29.9 9.5C27.2 5.5 24 3.1 18.9 2.2C18.4 2.1 17.9 2 17.3 2H15.1C15 2 14.9 2 14.8 2C13.8 2.1 11.6 2.3 11.4 3.1C11.1 3.9 12.4 4.8 13.2 5.7C14.4 6.9 19.4 11.6 19.8 12.8C20.4 14.8 18.3 16.3 16.4 18.2C14.6 20 13 22.3 11.1 21.7C10 21.3 7.30003 18.3 6.30003 17.3L2.90003 13.9C2.50003 13.5 2.20003 12.9 1.50003 13.1C0.800034 13.3 0.700034 13.7 0.600034 14.4C-0.399966 19.2 0.300034 22.9 2.90003 27C3.10003 27.3 3.20003 27.3 3.40003 27.6L4.40003 28.8C4.70003 29.1 4.70003 29.2 5.00003 29.5C5.20003 29.7 5.30003 29.7 5.60003 30C9.30003 33.6 15.1 34.9 20.3 33.7C21 33.5 21.4 33.3 22.2 33.3C22.4 34 23.3 34.6 23.8 35.2C24.1 35.6 24.3 35.7 24.6 36.1L27.1 38.9C27.4 39.4 28.2 40.4 28.6 40.6Z" fill="#5F5E6C"/>
<path fill-rule="evenodd" clip-rule="evenodd" d="M41.1999 38.6998V38.7998C41.7999 39.1998 42.5999 40.0998 43.0999 40.5998C45.4999 43.0998 41.9999 45.6998 40.3999 47.2998C39.8999 47.1998 39.5999 47.0998 39.0999 46.9998C37.8999 46.7998 35.5999 46.8998 34.8999 47.5998L37.5999 50.4998C37.9999 50.8998 38.0999 51.0998 38.4999 51.4998C38.7999 51.8998 39.0999 52.0998 39.4999 52.4998L43.0999 56.4998C43.4999 56.8998 43.7999 57.0998 44.0999 57.4998C44.4999 57.9998 44.5999 58.0998 44.9999 58.4998L51.3999 65.4998C52.7999 67.2998 55.5999 70.2998 57.2999 71.1998C58.9999 72.1998 61.3999 72.4998 63.6999 71.9998C65.5999 71.5998 67.3999 70.2998 68.3999 68.9998C70.0999 66.8998 70.6999 64.4998 70.1999 61.6998C69.5999 58.2998 67.6999 56.9998 65.3999 54.8998L47.1999 38.5998C46.6999 38.0998 44.5999 36.3998 44.1999 35.7998C43.5999 35.9998 43.0999 36.6998 42.6999 37.1998C42.0999 37.5998 41.5999 38.0998 41.1999 38.6998ZM61.1999 66.0998C57.9999 66.0998 57.6999 60.7998 61.2999 60.7998C64.6999 60.7998 64.8999 66.0998 61.1999 66.0998Z" fill="#5F5E6C"/>
<path fill-rule="evenodd" clip-rule="evenodd" d="M28.6 40.6005C27.3 44.0005 24.3 45.7005 20.7 45.2005C20.3 45.1005 19.7 44.9005 19.3 44.8005C18.7 45.2005 8 56.0005 6.7 57.3005C4.9 59.1005 3.3 60.8005 3.1 63.8005C3 65.4005 3.3 67.2005 3.9 68.2005C5.2 68.8005 5.9 69.4005 7.7 69.7005C9.3 69.9005 10.8 69.6005 12.2 69.1005C14.1 68.4005 16.4 65.7005 17.9 64.2005C20.7 61.4005 26.1 56.2005 28.5 53.6005C28.3 51.8005 27.7 51.3005 28.3 49.1005C29 46.6005 30.9 44.7005 33.4 44.1005C35.4 43.6005 36 44.0005 37.8 44.3005C38.5 43.7005 39.3 42.8005 40 42.1005C40.7 41.4005 41.5 40.6005 41.2 38.9005V38.8005C40.8 38.6005 40.7 38.4005 40.3 38.0005C40.1 37.8005 40 37.8005 39.9 37.6005C39.6 37.3005 39.7 37.5005 39.6 37.1005C39.1 36.8005 38.8 36.4005 38.4 36.0005C38.2 35.8005 38.1 35.7005 37.8 35.5005C37.4 35.1005 37.5 35.2005 37.3 34.8005C36.4 34.5005 35.7 32.9005 34.5 32.4005C32.2 31.3005 30.7 33.3005 29.4 34.6005C28.9 35.1005 28.4 35.3005 28.6 36.1005C29.1 37.3005 29.3 39.5005 28.6 40.6005ZM20.6 50.2005C21.5 49.8005 22.4 50.5005 22.1 51.5005C21.9 52.2005 11.2 62.6005 11 62.7005C10 63.1005 9.2 62.3005 9.5 61.3005C9.7 60.6005 17.6 53.0005 18.9 51.6005C19.4 51.1005 19.8 50.5005 20.6 50.2005ZM24.6 54.0005C25.5 53.6005 26.3 54.5005 26 55.4005C25.8 56.0005 15.1 66.5005 14.7 66.7005C13.8 67.0005 13 66.2005 13.3 65.3005C13.5 64.9005 17.5 61.0005 18 60.5005C18.8 59.6005 23.7 54.4005 24.6 54.0005Z" fill="#FEDB63"/>
<path fill-rule="evenodd" clip-rule="evenodd" d="M3.8999 68.1004C4.5999 70.3004 7.8999 72.7004 10.8999 72.9004H11.5999C13.4999 72.9004 14.4999 72.5004 15.8999 71.7004C17.6999 70.6004 25.8999 62.1004 28.1999 59.8004C28.9999 59.0004 30.6999 57.5004 31.1999 56.7004C30.8999 55.6004 30.7999 55.3004 30.7999 53.8004C30.7999 51.5004 31.9999 49.6004 33.7999 48.3004C34.1999 48.0004 34.4999 47.8004 34.9999 47.7004C35.6999 46.9004 38.0999 46.9004 39.1999 47.1004C39.6999 47.2004 39.9999 47.4004 40.4999 47.4004C42.0999 45.8004 45.5999 43.3004 43.1999 40.7004C42.6999 40.2004 41.8999 39.2004 41.2999 38.9004C41.6999 40.5004 40.8999 41.3004 40.0999 42.1004C39.3999 42.8004 38.5999 43.7004 37.8999 44.3004C36.0999 44.0004 35.4999 43.6004 33.4999 44.1004C30.9999 44.8004 29.0999 46.6004 28.3999 49.1004C27.7999 51.3004 28.2999 51.8004 28.5999 53.6004C26.1999 56.2004 20.7999 61.4004 17.9999 64.2004C16.3999 65.8004 14.1999 68.4004 12.2999 69.1004C10.8999 69.6004 9.3999 69.9004 7.7999 69.7004C5.8999 69.3004 5.1999 68.7004 3.8999 68.1004Z" fill="#FEC850"/>
<path fill-rule="evenodd" clip-rule="evenodd" d="M39.9999 32.0003L37.3999 34.7003C37.5999 35.1003 37.4999 35.0003 37.8999 35.4003C38.0999 35.6003 38.1999 35.7003 38.4999 35.9003C38.8999 36.3003 39.1999 36.7003 39.6999 37.0003C41.0999 35.3003 51.9999 24.7003 53.7999 22.8003C56.1999 20.4003 58.4999 18.1003 60.8999 15.7003C62.0999 14.5003 62.8999 13.4003 64.6999 12.5003C65.4999 12.1003 66.1999 11.7003 67.0999 11.3003C68.1999 10.7003 68.6999 10.8003 68.9999 9.60028C68.5999 9.00028 65.8999 6.30028 65.2999 5.90028C64.8999 5.60028 64.4999 5.50028 63.9999 5.80028C63.3999 6.20028 61.8999 10.3003 60.4999 11.6003L39.9999 32.0003Z" fill="#E8E9F0"/>
<path fill-rule="evenodd" clip-rule="evenodd" d="M39.6001 37.0996C39.7001 37.3996 39.6001 37.1996 39.9001 37.5996C40.1001 37.7996 40.2001 37.7996 40.3001 37.9996C40.6001 38.2996 40.8001 38.5996 41.2001 38.7996C41.5001 38.0996 42.1001 37.6996 42.6001 37.1996C43.0001 36.7996 43.6001 35.9996 44.1001 35.7996C44.6001 34.9996 46.6001 33.1996 47.4001 32.3996L64.2001 15.5996C66.8001 12.8996 73.1001 12.8996 68.8001 9.59961C68.6001 10.8996 68.0001 10.7996 66.9001 11.2996C66.1001 11.6996 65.3001 12.0996 64.5001 12.4996C62.7001 13.3996 61.9001 14.5996 60.7001 15.6996C58.3001 18.0996 56.0001 20.3996 53.6001 22.7996C51.9001 24.7996 41.1001 35.3996 39.6001 37.0996Z" fill="#C7CAD3"/>
<path fill-rule="evenodd" clip-rule="evenodd" d="M20.5999 50.2003C19.7999 50.6003 19.4999 51.1003 18.8999 51.7003C17.5999 53.0003 9.6999 60.6003 9.4999 61.4003C9.1999 62.4003 9.9999 63.2003 10.9999 62.8003C11.1999 62.7003 21.8999 52.3003 22.0999 51.6003C22.3999 50.4003 21.4999 49.7003 20.5999 50.2003Z" fill="#FF6B5C"/>
<path fill-rule="evenodd" clip-rule="evenodd" d="M24.6 53.9997C23.7 54.3997 18.8 59.5997 18 60.3997C17.5 60.8997 13.5 64.7997 13.3 65.1997C13 66.0997 13.8 66.8997 14.7 66.5997C15.1 66.4997 25.7 55.8997 25.9 55.3997C26.3 54.4997 25.5 53.6997 24.6 53.9997Z" fill="#FF6B5C"/>
</g>
<defs>
<clipPath id="clip0_150_177">
<rect width="72.4" height="72.9" fill="white"/>
</clipPath>
</defs>
</svg>
