<svg width="73" height="73" viewBox="0 0 73 73" fill="none" xmlns="http://www.w3.org/2000/svg">
<g clip-path="url(#clip0_150_166)">
<path fill-rule="evenodd" clip-rule="evenodd" d="M0 72.8998H20.9C20.9 70.4998 20.7 67.2998 21 64.9998C21.1 63.8998 21.4 62.7998 21.8 61.7998C22.2 60.6998 22.8 59.8998 23.1 58.9998C22 58.3998 21.2 57.7998 19.9 57.2998C18.9 56.8998 17.3 56.3998 16 56.2998H13.2C11.3 56.4998 8.8 57.2998 7.5 58.0998C4.2 60.0998 1.9 62.5998 0.7 66.1998C0.1 67.9998 0 69.2998 0 71.2998V72.8998Z" fill="#84EBF6"/>
<path fill-rule="evenodd" clip-rule="evenodd" d="M47.8 58.8996C48.2 59.7996 48.7 60.5996 49.1 61.6996C49.5 62.6996 49.7001 63.7996 49.9001 64.8996C50.2001 67.0996 50 70.4996 50 72.7996H70.9001C70.9001 67.4996 70.5001 65.1996 67.4001 61.2996C66.2001 59.7996 64.9 58.8996 63.3 57.8996C61.8 56.9996 59.3 56.2996 57.6 56.0996H54.8C53.5 56.1996 51.9001 56.6996 50.9001 57.0996C50.3001 57.2996 49.9 57.4996 49.3 57.7996C48.8 58.1996 48.3 58.6996 47.8 58.8996Z" fill="#32DDF9"/>
<path fill-rule="evenodd" clip-rule="evenodd" d="M35.3999 72.8998H49.9999C49.9999 70.5998 50.1999 67.0998 49.8999 64.9998C49.6999 63.7998 49.4999 62.7998 49.0999 61.7998C48.6999 60.6998 48.0999 59.8998 47.7999 58.9998C47.3999 58.4998 47.1999 58.1998 46.8999 57.6998C45.2999 55.6998 42.9999 53.8998 40.4999 53.0998C39.6999 52.8998 37.7999 52.1998 36.8999 52.2998H35.4999L35.3999 72.8998Z" fill="#E63950"/>
<path fill-rule="evenodd" clip-rule="evenodd" d="M23.1 58.9C22.7 59.8 22.2 60.6 21.8 61.7C21.4 62.7 21.2 63.8 21 64.9C20.7 67.2 20.9 70.4 20.9 72.8H35.4V52H34C31.6 52.2 29.1 53.3 27.5 54.3C26.6 54.8 25.8 55.6 25.1 56.3C24.3 57.2 23.7 58 23.1 58.9Z" fill="#FF637B"/>
<path fill-rule="evenodd" clip-rule="evenodd" d="M54.8001 56.3003H57.6001C58.1001 56.0003 58.9001 56.1003 60.4001 55.2003C61.3001 54.7003 62.0001 54.2003 62.6001 53.4003C63.9001 51.7003 64.6001 50.3003 64.6001 47.3003C64.5001 42.6003 58.9001 37.7003 53.1001 40.2003C47.2001 42.8003 45.8001 51.1003 52.1001 55.2003C52.5001 55.5003 52.9001 55.6003 53.4001 55.8003C53.7001 55.9003 53.8001 56.0003 54.1001 56.0003L54.7001 56.2003C54.6001 56.2003 54.7001 56.2003 54.8001 56.3003C54.8001 56.2003 54.7001 56.2003 54.8001 56.3003Z" fill="#F5A96B"/>
<path fill-rule="evenodd" clip-rule="evenodd" d="M13.2999 56.3003H16.0999L16.7999 56.0003C22.8999 54.4003 25.2999 46.7003 20.3999 41.8003C16.5999 38.0003 10.1999 38.8003 7.29991 44.0003C5.39991 47.4003 6.39991 51.8003 9.19991 54.2003C11.2999 56.0003 11.8999 55.7003 13.0999 56.1003L13.2999 56.3003Z" fill="#FEBD86"/>
<path fill-rule="evenodd" clip-rule="evenodd" d="M57.2 9.5002C55.5 9.5002 51 10.4002 50 10.5002C50.8 11.7002 55 15.2002 55.1 15.6002C55.1 16.1002 54.9 16.8002 54.8 17.4002L53.9 23.0002C54.8 22.8002 56.2 21.8002 57.1 21.4002C61.4 19.3002 59.4 19.3002 63.6 21.4002C64.4 21.8002 66.2 22.9002 66.9 23.1002L66 17.7002C65.6 15.1002 65.1 16.5002 68.3 13.3002C69.1 12.5002 70.4 11.6002 71 10.7002C70 10.6002 68.5 10.3002 67.5 10.2002C66.3 10.0002 65 9.7002 63.8 9.7002C63.5 9.2002 63.2 8.5002 63 7.9002C62.6 7.0002 60.7 2.7002 60.6 2.2002H60.3C60.2 2.8002 59.1 5.2002 58.8 6.0002C58.5 6.7002 58.3 7.2002 58 7.9002C57.7 8.2002 57.3 9.0002 57.2 9.5002Z" fill="#FDBF00"/>
<path fill-rule="evenodd" clip-rule="evenodd" d="M7.3 9.5C5.5 9.5 1.2 10.4 0 10.5C0.6 11.5 1.8 12.2 2.6 13C5.8 16.2 5.4 14.9 5 17.4L4 22.9C5 22.7 10.1 19.6 10.5 19.6L15.3 22.1C15.7 22.3 16.5 22.8 17 22.9L16.1 17.5C15.8 15.6 15.4 15.6 17 14.4L20.9 10.5C19.9 10.4 18.4 10.1 17.4 10C16.2 9.8 15.1 9.5 13.8 9.5C13.3 8.5 10.7 2.5 10.6 2H10.3C10.3 2.8 7.5 8.7 7.3 9.5Z" fill="#FEDA2C"/>
<path fill-rule="evenodd" clip-rule="evenodd" d="M35.3999 52.0998H36.7999L37.4999 51.7998C41.3999 50.6998 43.6999 47.2998 43.6999 42.9998C43.6999 38.9998 40.0999 35.2998 35.3999 35.2998V52.0998Z" fill="#F5A96B"/>
<path fill-rule="evenodd" clip-rule="evenodd" d="M34 52.1004H35.4V35.4004C33.5 35.4004 32.3 35.8004 30.9 36.7004C27.7 38.7004 26.3 42.8004 27.6 46.6004C28.2 48.4004 29.6 50.1004 31.2 51.0004C31.7 51.3004 32 51.4004 32.5 51.6004C33.4 51.9004 33.7 51.9004 34 52.1004Z" fill="#FED1A3"/>
<path fill-rule="evenodd" clip-rule="evenodd" d="M35.4 19.6L35.5 2C35.1 2.4 32.4 9 32.2 9.5C31 9.5 29.8 9.8 28.6 9.9L25 10.4C25.6 11.3 28.6 13.9 29.8 15.1C30.4 15.7 30.1 16 30 16.9L29 22.9C29.5 22.8 30.2 22.4 30.6 22.2L35.4 19.6Z" fill="#FEDA2C"/>
<path fill-rule="evenodd" clip-rule="evenodd" d="M35.3999 19.6C36.2999 20.1 41.2999 22.8 41.8999 22.9C41.5999 21.8 41.4999 20.5 41.2999 19.2C41.1999 18.6 41.0999 17.9 40.9999 17.4C40.4999 14.5 40.3999 15.9 43.2999 13C43.9999 12.3 45.3999 11.1 45.7999 10.4L39.5999 9.5C38.3999 9.3 38.7999 9.8 37.4999 6.8L35.4999 2L35.3999 19.6Z" fill="#FDBF00"/>
</g>
<defs>
<clipPath id="clip0_150_166">
<rect width="72.9" height="72.9" fill="white"/>
</clipPath>
</defs>
</svg>
