<svg width="71" height="71" viewBox="0 0 71 71" fill="none" xmlns="http://www.w3.org/2000/svg">
<path fill-rule="evenodd" clip-rule="evenodd" d="M0.6 70.3L6.8 64.1C10.5 60.4 49 21.6 49.7 21.4C49.2 21.1 48.7 20.3 48.4 19.7C45.7 14.1 51.6 8.9 56.6 11.4C57.2 11.7 58 12.2 58.4 12.7C58.6 12.2 63.5 7.3 64.3 6.7L62.5 5.1C62.3 4.9 62 4.7 61.8 4.6C58.9 2.4 55.5 0.8 51.7 0.3C50.7 0.2 49.8 0.1 48.9 0H46.7C45.5 0.1 44.3 0.2 43 0.6C39.9 1.3 37.1 2.6 34.7 4.4C33.5 5.3 31.7 6.8 30.9 7.8C29.8 9.2 30 8.9 28.8 10.6C26.8 13.6 25.5 17.5 25.2 21.4C24.9 24.8 25.6 27.1 26.3 30C25.6 30.4 2.6 53.6 1 55.1C0.2 55.9 0 56.1 0 56.9V58.3V66.7V69C0.1 69.5 0.2 70 0.6 70.3Z" fill="#FCBF29"/>
<path fill-rule="evenodd" clip-rule="evenodd" d="M58.3001 12.7004C62.2001 16.8004 59.0001 22.9004 54.1001 23.1004C52.1001 23.2004 50.7001 22.4004 49.7001 21.4004C49.0001 21.7004 10.5001 60.4004 6.8001 64.1004L0.600098 70.3004C1.0001 70.7004 1.3001 70.8004 1.7001 70.9004H3.4001H13.8001C15.2001 70.8004 16.0001 69.5004 17.5001 68.0004C18.2001 67.3004 18.7001 67.1004 18.7001 65.8004C18.7001 64.6004 18.4001 63.8004 18.4001 62.6004C22.4001 61.7004 24.3001 63.5004 24.7001 59.0004C24.8001 58.0004 24.9001 56.9004 25.0001 56.0004C26.8001 56.0004 28.8001 56.9004 29.9001 55.6004C30.8001 54.6004 30.4001 52.0004 30.4001 50.3004C36.2001 50.3004 34.4001 51.0004 38.8001 46.7004C39.4001 46.1004 40.4001 45.3004 40.8001 44.7004C44.4001 45.5004 44.6001 45.9004 49.2001 45.8004C53.6001 45.7004 57.9001 43.8004 61.4001 41.4004C64.2001 39.4004 66.4001 36.6004 68.1001 33.7004C68.9001 32.3004 69.7001 30.1004 70.1001 28.5004C70.4001 27.2004 70.7001 25.7004 70.7001 24.2004V21.8004C70.7001 21.1004 70.6001 20.5004 70.5001 19.8004C69.7001 14.5004 67.2001 9.90039 64.1001 6.90039C63.5001 7.40039 58.5001 12.2004 58.3001 12.7004Z" fill="#FE9923"/>
</svg>
