<svg width="71" height="71" viewBox="0 0 71 71" fill="none" xmlns="http://www.w3.org/2000/svg">
<path fill-rule="evenodd" clip-rule="evenodd" d="M32.5 62.8C33 62.8 33.5 63 34.2 62.9C34.7 62.8 35.2 62.8 35.6 62.7C42.3 61.6 48.3 57.9 52.5 52.7C60.5 42.6 60.5 28.4 52.4 18.2L49.1 14.7C47.1 13.1 45.7 12 43.1 10.7C39.5 8.9 36.4 8.1 32.5 8.1C30 7.8 24.4 10.1 22.5 11.1C20 12.4 18.7 13.5 16.7 15.1C16.3 15.4 16.2 15.6 15.9 16C15.6 16.3 15.4 16.4 15.1 16.7C10.6 21.5 7.8 28.7 7.8 35.5C7.8 43.6 11.4 50.1 15.1 54.3C15.9 55.2 17.6 56.7 18.5 57.4C19.6 58.3 21 59.2 22.5 59.9C24.5 60.9 29.9 63.1 32.5 62.8ZM35.1 12.7C36.9 12.2 36.9 15.9 35.7 16.3C34.6 16.6 34.3 15.8 34.3 14.9C34.3 13.9 34.2 13 35.1 12.7ZM19.6 19C20.5 18.5 21.3 19.7 21.7 20C22.2 20.5 22.6 21.6 21.6 22C20.6 22.5 17.8 20 19.6 19ZM50.5 19.1C51.4 18.8 52.2 19.7 51.7 20.6C51.5 20.9 50.4 22 50 22.1C49.1 22.4 48.2 21.4 48.8 20.6C48.9 20.4 49.4 20 49.6 19.7C49.9 19.4 49.9 19.3 50.5 19.1ZM13.5 34.3C14.1 34.1 15.6 34.2 16 34.5C16.6 35 16.3 36.1 15.6 36.3C12.9 37.2 11.6 34.8 13.5 34.3ZM55.2 34.4C58.2 33.5 58.8 36 57.3 36.4C56.6 36.6 55 36.5 54.7 36.2C54.1 35.6 54.4 34.7 55.2 34.4ZM26.1 34.5C26.4 34.2 26.3 34.3 26.9 34.3H32.9C33.1 33.6 33.7 33 34.4 32.8V21.8C34.4 20.4 34.5 20.8 34.5 20.5C34.5 20.4 34.5 20.4 34.5 20.4C34.5 19.3 36.3 19.3 36.3 20.4L36.5 21.1C36.6 23.4 36.5 30.1 36.5 32.8C37.6 33.2 38.2 34.2 38.3 35.7C39.7 36.3 44 38.6 45.9 39.5C46.7 39.9 47.9 40.3 47.4 41.5C47 42.6 45.6 41.8 44.8 41.4L37.3 37.6C36.5 38.1 35.8 38.5 34.5 38.1C33.7 37.9 33 37.2 32.8 36.5C31.6 36.5 30.5 36.5 29.3 36.5C28.7 36.5 26.4 36.7 26 36.3C25 36.2 25 34.7 26.1 34.5ZM21.6 48.6C22.3 49.6 22.3 49.8 21.5 50.6C21.1 51 20.4 51.9 19.6 51.6C17.9 51.1 20 48.3 21.6 48.6ZM49.2 48.7C50.3 48.2 52.7 50.9 51.3 51.7C50.2 52.3 48.6 50.3 48.6 49.7C48.5 49 48.8 48.9 49.2 48.7ZM35 54.5C36.8 53.9 36.8 57.7 35.6 58.1C34.5 58.4 34.2 57.5 34.2 56.6C34.2 55.5 34.1 54.8 35 54.5Z" fill="#F4FBFF"/>
<path fill-rule="evenodd" clip-rule="evenodd" d="M0 37V33.7C0.2 30.5 0.8 27.3 1.9 23.9C3.2 19.9 5.5 16 8.1 12.8C10.4 10 11.8 8.8 14.8 6.5C15.2 6.2 15.7 5.9 16.1 5.6C16.6 5.3 17 5 17.5 4.8C18.5 4.3 19.3 3.8 20.3 3.3C22.1 2.4 24.7 1.5 26.7 1C28.9 0.5 31.6 0 34.2 0C35.1 0.4 36.8 0.4 37.8 0.5C64.6 5.2 77.4 38.5 57.2 60C52.2 65.3 44.9 69.1 37.5 70.4C36.7 70.5 34.3 70.7 33.8 70.9C27 70.9 19.7 67.9 14.4 64.1C11.9 62.3 10.7 61.1 8.8 58.9C8.4 58.5 8.1 58.2 7.8 57.7C5.9 55.3 4 52.5 2.9 49.6C1.2 45.3 0.2 41.2 0 37ZM32.5 62.8C29.9 63.1 24.5 60.9 22.6 59.9C21.2 59.2 19.7 58.2 18.6 57.4C17.7 56.7 15.9 55.2 15.2 54.3C11.4 50 7.8 43.5 7.8 35.4C7.8 28.6 10.6 21.4 15.1 16.6C15.4 16.3 15.6 16.2 15.9 15.9C16.2 15.5 16.3 15.3 16.7 15C18.7 13.3 20 12.3 22.5 11C24.4 10 30 7.7 32.5 8C33.4 7.4 37.9 7.8 39.2 8C48.5 9.3 56.4 15.2 60.3 23.5C64 31 63.9 40 60.3 47.4C59.5 49 58.5 50.6 57.5 52C55.9 54.1 55.6 54.1 54 55.8C50.6 59.4 44.1 62.1 39 62.8C37.8 63 33.3 63.4 32.5 62.8Z" fill="#EAB04D"/>
<path fill-rule="evenodd" clip-rule="evenodd" d="M33.9 70.9C37.2 70.9 39.5 70.9 42.2 70.3C46.8 69.4 51.1 67.6 55 65.1C56 64.5 56.7 63.9 57.6 63.2C59.2 61.9 59.8 61.3 61.1 60L63.2 57.6C63.6 57.1 63.9 56.7 64.2 56.3C64.5 55.9 64.8 55.5 65.1 55C68.8 49.5 70.9 42.8 70.9 35.8C70.9 25.7 67.3 17.2 60.3 10.2C57.5 7.4 53.5 4.5 49.6 2.9C49.1 2.7 48.5 2.4 48 2.2L42.8 0.7C40 0.1 37.8 0 34.3 0C35.2 0.4 36.9 0.4 37.9 0.5C64.6 5.2 77.4 38.5 57.2 60C52.2 65.3 44.9 69.1 37.5 70.4C36.8 70.5 34.4 70.7 33.9 70.9Z" fill="#E49542"/>
<path fill-rule="evenodd" clip-rule="evenodd" d="M32.6 8.1C36.5 8.1 39.6 8.9 43.2 10.7C45.8 12 47.1 13.1 49.2 14.7L52.5 18.2C60.6 28.3 60.6 42.5 52.6 52.7C48.5 57.9 42.4 61.6 35.7 62.7C35.2 62.8 34.7 62.9 34.3 62.9C33.5 63 33.1 62.8 32.6 62.8C33.4 63.4 38 63 39.2 62.8C44.3 62.1 50.8 59.4 54.2 55.8C55.8 54.1 56.1 54 57.7 52C58.7 50.7 59.7 49.1 60.5 47.4C63.9 40 64 31 60.4 23.6C56.4 15.3 48.6 9.4 39.3 8.1C38 7.9 33.5 7.5 32.6 8.1Z" fill="#DAF1F4"/>
<path fill-rule="evenodd" clip-rule="evenodd" d="M26.1 34.5C27.1 34.7 31.4 34.6 32.8 34.6C32.6 35.2 32.6 35.7 32.8 36.3C31.5 36.3 27.1 36.1 26.1 36.4C26.5 36.8 28.8 36.6 29.4 36.6C30.6 36.6 31.7 36.6 32.9 36.6C33.1 37.3 33.8 38 34.6 38.2C35.9 38.6 36.6 38.2 37.4 37.7C37.6 37.3 37.8 37.3 38 36.9C38.2 36.6 38.3 36.2 38.4 35.8C38.4 34.3 37.8 33.3 36.6 32.9C36.6 30.2 36.7 23.6 36.6 21.2L36.4 20.5C36 21.9 36.3 30.5 36.3 32.7C35.7 32.5 35.2 32.5 34.6 32.7C34.6 30.5 34.9 21.9 34.5 20.5C34.5 20.5 34.5 20.5 34.5 20.6C34.5 20.9 34.4 20.5 34.4 21.9V32.9C33.7 33.1 33.1 33.7 32.9 34.4H26.9C26.3 34.4 26.4 34.3 26.1 34.5Z" fill="#365E7D"/>
<path fill-rule="evenodd" clip-rule="evenodd" d="M37.3 37.6L44.8 41.4C45.6 41.8 47 42.6 47.4 41.5C47.9 40.3 46.6 39.9 45.9 39.5C44.1 38.6 39.7 36.2 38.3 35.7C38.2 36 38.1 36.5 37.9 36.8C37.7 37.3 37.5 37.2 37.3 37.6Z" fill="#DA4A54"/>
<path fill-rule="evenodd" clip-rule="evenodd" d="M34.5 20.5C34.9 22 34.6 30.5 34.6 32.7C35.2 32.5 35.7 32.5 36.3 32.7C36.3 30.5 36 21.9 36.4 20.5C36.3 19.4 34.5 19.4 34.5 20.5Z" fill="#2B4D66"/>
<path fill-rule="evenodd" clip-rule="evenodd" d="M26.1 36.3C27.1 36.1 31.4 36.2 32.8 36.2C32.6 35.6 32.6 35.1 32.8 34.5C31.5 34.5 27.1 34.7 26.1 34.4C25 34.7 25 36.2 26.1 36.3Z" fill="#2B4D66"/>
<path fill-rule="evenodd" clip-rule="evenodd" d="M55.2 34.4C54.4 34.6 54.1 35.6 54.7 36.2C55.1 36.6 56.7 36.6 57.3 36.4C58.8 36 58.2 33.6 55.2 34.4Z" fill="#2B4D66"/>
<path fill-rule="evenodd" clip-rule="evenodd" d="M13.5 34.3C11.6 34.8 12.9 37.2 15.6 36.3C16.3 36.1 16.6 35 16 34.5C15.6 34.2 14.1 34.1 13.5 34.3Z" fill="#2B4D66"/>
<path fill-rule="evenodd" clip-rule="evenodd" d="M35.1 12.7C34.2 13 34.3 13.9 34.3 14.8C34.3 15.7 34.6 16.6 35.7 16.2C36.9 15.9 37 12.1 35.1 12.7Z" fill="#2B4D66"/>
<path fill-rule="evenodd" clip-rule="evenodd" d="M35 54.5C34.1 54.8 34.2 55.5 34.2 56.6C34.2 57.5 34.5 58.4 35.6 58.1C36.9 57.7 36.8 53.9 35 54.5Z" fill="#2B4D66"/>
<path fill-rule="evenodd" clip-rule="evenodd" d="M50.5 19.1C49.9 19.3 50 19.4 49.6 19.8C49.4 20 48.9 20.4 48.8 20.7C48.3 21.6 49.1 22.5 50 22.2C50.4 22.1 51.5 21 51.7 20.7C52.1 19.7 51.3 18.8 50.5 19.1Z" fill="#2B4D66"/>
<path fill-rule="evenodd" clip-rule="evenodd" d="M19.6 19C17.8 19.9 20.6 22.5 21.6 22C22.5 21.6 22.1 20.5 21.7 20C21.3 19.7 20.5 18.6 19.6 19Z" fill="#2B4D66"/>
<path fill-rule="evenodd" clip-rule="evenodd" d="M21.6 48.6C19.9 48.3 17.8 51.1 19.6 51.7C20.5 52 21.2 51 21.5 50.7C22.4 49.8 22.4 49.6 21.6 48.6Z" fill="#2B4D66"/>
<path fill-rule="evenodd" clip-rule="evenodd" d="M49.2 48.7C48.8 48.9 48.5 49 48.5 49.7C48.5 50.3 50.1 52.3 51.2 51.7C52.7 50.9 50.3 48.2 49.2 48.7Z" fill="#2B4D66"/>
</svg>
