<svg width="30" height="30" viewBox="0 0 30 30" fill="none" xmlns="http://www.w3.org/2000/svg">
<path fill-rule="evenodd" clip-rule="evenodd" d="M14.4042 0H15.6487C16.6814 0.0529101 17.714 0.185185 18.7202 0.449735C19.2233 0.582011 19.6734 0.714286 20.1236 0.873016C20.5472 1.03175 21.0238 1.21693 21.3945 1.40212C23.5922 2.51323 25.4457 3.88889 26.902 5.84656C27.5905 6.77249 28.0936 7.56614 28.6231 8.65079C29.6823 10.873 30 12.8307 30 15.5291C30 18.5185 28.782 21.4815 27.2462 23.6772C25.7105 25.8466 23.7246 27.4603 21.3416 28.6243C19.1174 29.6825 17.158 30 14.4572 30C12.3919 30 9.98235 29.2857 8.60547 28.5979C5.34863 27.0106 2.9391 24.6296 1.37688 21.3492C0.344219 19.1799 0 17.1958 0 14.5238C0 12.9365 0.370697 11.3492 0.847308 9.92064C1.24448 8.78307 1.74757 7.8836 2.38305 6.87831C2.48897 6.69312 2.59488 6.53439 2.72727 6.34921C3.86584 4.78836 4.81906 3.83598 6.38129 2.72487C8.68491 1.0582 11.5181 0.10582 14.4042 0ZM7.62577 13.0159C7.62577 11.3228 7.81112 10.291 8.65843 8.88889C9.90291 6.8254 12.286 5.29101 14.722 5.29101H15.2515C17.8464 5.29101 20.1765 6.87831 21.368 8.86243C22.2154 10.291 22.4007 11.2963 22.4007 13.0423C22.4007 13.6243 22.1094 14.4709 21.9241 14.9206C21.6858 15.5026 21.421 15.9788 21.1562 16.5608C20.759 17.328 19.8058 18.7831 19.3292 19.4709C18.5349 20.6085 16.8667 22.7249 15.9135 23.8095C15.7546 23.9947 15.1192 24.6032 15.0662 24.7884H14.9603C14.9073 24.5767 14.6955 24.4709 14.4307 24.127L13.8747 23.5185C13.4775 23.0952 13.1598 22.6455 12.7891 22.1958L10.4854 19.1534C9.50574 17.6984 7.62577 14.6561 7.62577 13.0159Z" fill="white"/>
<path fill-rule="evenodd" clip-rule="evenodd" d="M12.2065 12.3017C12.2065 13.1747 12.3389 13.8625 13.0009 14.5504C14.8014 16.3493 17.82 14.8943 17.82 12.7779C17.82 11.8519 17.6876 11.2435 17.0256 10.5292C15.993 9.47099 14.0865 9.44453 13.0009 10.5292C12.6567 10.8731 12.2065 11.6138 12.2065 12.3017Z" fill="white"/>
</svg>
