<svg width="30" height="30" viewBox="0 0 30 30" fill="none" xmlns="http://www.w3.org/2000/svg">
<path fill-rule="evenodd" clip-rule="evenodd" d="M0 14.5277C0 16.7489 0.12766 18 0.868085 20.0681C1.22553 21.0638 1.53191 21.6511 2.01702 22.5447C2.11915 22.7489 2.24681 22.9021 2.34894 23.0809C2.83404 23.8979 3.72766 24.9702 4.39149 25.6085C5.00426 26.2213 5.64255 26.7319 6.33191 27.2426C7.2 27.8553 7.63404 28.1106 8.60426 28.5957C9.98298 29.2851 12.4085 30 14.4511 30H14.5532C16.2128 30 17.0043 29.9745 18.6638 29.566C19.1745 29.4383 19.583 29.3106 20.0681 29.1319C21.983 28.4681 23.1574 27.6255 24.6638 26.4766C27.6766 24.1532 30 19.4553 30 15.5234C30 12.817 29.6681 10.8766 28.6213 8.65532C26.9872 5.28511 24.7149 3.08936 21.3957 1.40426C19.7872 0.612766 17.3106 0 15.5234 0C13.2766 0 12.0255 0.12766 9.93192 0.868085C9.5234 1.02128 9.01277 1.2 8.65532 1.40426L6.91915 2.37447C4.44255 3.80426 2.65532 6.12766 1.37872 8.65532C0.587234 10.2383 0 12.7149 0 14.5277ZM6.28085 8.9617H23.7447C23.566 9.21702 18.2043 14.5277 17.7191 15.0128C17.4638 15.2681 15.8298 16.9787 15.6511 16.9787C13.8894 16.9787 14.4766 17.183 13.3277 16.034C12.5872 15.3191 6.45957 9.24255 6.28085 8.9617ZM5.51489 20.7574L5.48936 9.72766L11.0043 15.217L5.51489 20.7574ZM18.9702 15.2426L24.4851 9.70213L24.5106 20.7319L18.9702 15.2426ZM11.7702 15.983C12.0511 16.1872 12.6128 16.8 12.8936 17.0553C14.1191 18.2809 13.4809 18.0255 15.9574 18.0255C16.417 18.0255 17.617 16.3915 18.2298 15.983L23.2851 21.0128L6.74043 21.0383L11.7702 15.983Z" fill="white"/>
</svg>
