<svg width="30" height="30" viewBox="0 0 30 30" fill="none" xmlns="http://www.w3.org/2000/svg">
<path fill-rule="evenodd" clip-rule="evenodd" d="M0 14.4961V15.6331C0 18.7339 1.75778 22.9974 3.955 25.168C4.13594 25.3488 4.26519 25.4522 4.42029 25.6331C6.9794 28.1912 10.7793 30 14.5016 30C17.1125 30 19.258 29.6382 21.3518 28.6047C24.2728 27.1318 26.2632 25.4005 27.9693 22.5581C28.202 22.1447 28.3829 21.8088 28.5897 21.3695C29.9856 18.553 30.425 14.4703 29.5461 11.292C29.0291 9.43152 28.3571 7.93282 27.2714 6.38243C24.7381 2.68734 20.0593 0 15.5615 0C12.899 0 10.7793 0.335917 8.63378 1.39535C8.19434 1.60207 7.85829 1.78295 7.4447 2.0155C7.0311 2.24806 6.72091 2.45478 6.33316 2.71318C4.70463 3.85013 2.97271 5.68475 2.01627 7.44186C1.78363 7.8553 1.60268 8.19121 1.39588 8.63049C0.69794 10.0258 0 12.4548 0 14.4961ZM15.6907 5.99483C20.1886 5.99483 23.9885 9.79328 23.9885 14.2894H22.7477C22.7477 12.093 21.5069 9.71576 19.6974 8.52713C18.9219 8.01034 18.224 7.67442 17.2934 7.44186C16.8798 7.3385 16.156 7.23514 15.6907 7.23514V5.99483ZM12.6922 10.7494C12.6922 11.137 12.1493 11.4729 11.8908 11.7054L10.9344 12.5581C11.1929 13.1008 11.0378 13.3592 11.9167 14.832C12.4595 15.7364 12.5888 15.7881 13.1316 16.4083C13.6486 17.0026 13.416 16.6667 13.752 17.0284C14.0622 17.3385 14.7601 17.8295 15.1479 18.062C16.6213 18.9406 16.8798 18.7855 17.4227 19.0439L18.2498 18.1137C19.1804 17.0801 18.9995 16.8475 21.6878 18.4496C22.6443 19.0181 24.3504 19.845 23.8592 20.5685C23.6266 20.9044 23.2647 21.292 22.9803 21.5504C22.7994 21.7313 22.6701 21.8088 22.4892 21.9897C22.0497 22.4289 20.9382 23.2558 20.4212 23.5917C19.8525 23.9793 19.8267 23.9535 19.077 23.7984C18.5859 23.6951 18.0689 23.5659 17.6036 23.385C15.7166 22.6615 13.3901 21.2662 11.9425 19.8708C11.6065 19.5349 11.3221 19.3023 10.9861 18.9664L9.69362 17.5711C8.47868 16.3049 7.2379 14.0827 6.56581 12.4031C6.38486 11.9638 6.25561 11.447 6.15221 11.0078C5.94542 10.0258 5.97127 10.0517 6.66921 9.06977L7.70319 7.80362C7.80659 7.67442 7.80659 7.64858 7.93584 7.51938C8.29773 7.13178 9.35757 5.68475 9.95211 6.09819C10.495 6.48579 12.6922 10.0258 12.6922 10.7494ZM15.6907 9.25065C18.4825 9.25065 20.7573 11.4987 20.7573 14.3152H19.5165C19.5165 13.3075 19.0512 12.2739 18.4049 11.6279C18.3015 11.5245 18.2757 11.5245 18.1723 11.447C18.0689 11.3695 18.043 11.3437 17.9397 11.2403C17.3451 10.7752 16.5696 10.5168 15.7166 10.5168V9.25065H15.6907Z" fill="white"/>
</svg>
