<svg width="30" height="30" viewBox="0 0 30 30" fill="none" xmlns="http://www.w3.org/2000/svg">
<path fill-rule="evenodd" clip-rule="evenodd" d="M0 14.5342C0 16.7702 0.133215 17.9947 0.852576 20.071C1.19893 21.0825 1.51865 21.6415 1.99822 22.5466C2.1048 22.7595 2.21137 22.8926 2.34458 23.079C2.82416 23.8776 3.73002 24.9689 4.36945 25.6078C4.98224 26.2201 5.62167 26.7524 6.31439 27.2316C7.19361 27.8438 7.61989 28.11 8.60568 28.5892C9.99112 29.2813 12.4156 30 14.4671 30H14.5471C16.1989 30 16.9982 29.9734 18.6767 29.5741C19.1829 29.441 19.6092 29.3079 20.0622 29.1482C21.9805 28.4827 23.1794 27.6575 24.6714 26.4862C27.6821 24.1704 30 19.4854 30 15.5191C30 12.8039 29.6803 10.8607 28.6146 8.65129C26.9893 5.27063 24.698 3.08784 21.3677 1.41083C19.7691 0.612245 17.2913 0 15.5062 0C13.2416 0 12.016 0.133097 9.91119 0.851819C9.4849 0.984916 9.00533 1.19787 8.63233 1.38421L6.92718 2.3425C4.44938 3.80657 2.6643 6.12245 1.38544 8.65129C0.586146 10.2484 0 12.724 0 14.5342ZM10.3375 21.6681C10.2043 21.4818 9.83126 21.4286 9.61812 21.3221C8.89876 20.976 8.39254 20.5768 7.85968 20.0444C7.27353 19.4587 6.58082 18.6069 6.34103 17.4623C5.83481 15.0932 5.80817 12.4312 6.36767 10.0887C6.76732 8.38509 8.76554 6.44188 10.5506 6.06921C12.8686 5.56344 15.6927 5.5102 18.0639 5.82964C19.4494 6.01597 20.1687 6.14907 21.1812 6.81455C21.9805 7.34694 22.6998 8.03904 23.206 8.89086C24.1918 10.5146 24.2718 13.8687 23.9787 15.9982C23.7922 17.3824 23.659 18.1544 22.9929 19.1127C22.4867 19.858 21.6874 20.6034 20.8615 21.0825C19.849 21.6681 18.8899 21.7746 17.5844 21.9343C15.6661 22.1473 15.0799 21.961 13.6679 22.0408C13.4813 22.3336 12.9485 22.866 12.6554 23.1588L11.6163 24.1704C11.0835 24.5697 10.4441 24.2236 10.3641 23.6646C10.2842 23.2653 10.3375 22.1739 10.3375 21.6681Z" fill="#6F3FAA"/>
<path fill-rule="evenodd" clip-rule="evenodd" d="M11.057 23.5846C11.3768 23.7177 11.6432 23.1853 12.0961 22.7594L13.0553 21.8011C13.375 21.455 13.6681 21.1622 13.9878 20.8162C14.4673 20.3104 14.3874 20.4967 15.6396 20.4701C16.732 20.4435 18.0908 20.3104 19.1299 20.0708C20.1157 19.8312 20.9682 19.006 21.4212 18.447C22.6201 16.9563 22.5668 13.7088 22.3004 11.7922C22.1672 10.7008 21.9807 9.7425 21.1814 8.99716C20.4087 8.27844 19.9824 7.77267 18.6769 7.55972C16.2258 7.16043 13.9078 7.16043 11.4567 7.5331C10.2311 7.71943 9.75154 8.0921 8.92561 8.89068C8.12632 9.68927 7.91317 10.1684 7.70003 11.5792C7.4336 13.3627 7.35367 16.9031 8.44603 18.3139C8.95225 18.9794 9.67161 19.6981 10.6574 20.0176C11.057 20.1507 10.9505 20.1507 10.9505 20.6298C11.0038 21.2154 10.9238 23.2917 11.057 23.5846ZM19.1299 14.2944C18.97 14.0016 18.9434 12.9102 18.7569 12.3778C18.5171 11.6857 18.0641 11.0735 17.5846 10.6742C16.359 9.63603 15.3732 9.90222 14.6538 9.63603C14.5739 9.07702 15.0002 9.1835 15.5064 9.23674C15.9061 9.28997 16.2524 9.36983 16.5988 9.50293C17.8244 9.98208 18.8634 10.9936 19.2631 12.298C19.3963 12.6706 19.4496 13.0167 19.4762 13.4426C19.5295 13.8951 19.6894 14.4009 19.1299 14.2944ZM15.3199 10.3814C16.1192 10.3281 17.0517 10.8605 17.6112 11.4195C17.9842 11.8188 18.6503 13.1498 18.2773 13.8419L17.9576 13.8153C17.8244 13.5491 17.8244 12.8836 17.6645 12.4311C17.0784 10.8605 15.3199 10.9936 15.1334 10.8073C14.9203 10.6209 15.0535 10.408 15.3199 10.3814ZM10.3377 11.6059C10.1512 10.9138 10.8439 10.2483 11.1636 10.0353C11.9629 9.47631 12.2293 9.79574 12.6823 10.3814C12.9221 10.6742 13.5348 11.4728 13.5881 11.8721C13.6947 12.7505 12.5757 12.644 12.8155 13.4692C12.9753 14.0815 13.375 14.6138 13.6947 15.0131C14.0144 15.439 14.494 15.7585 15.1068 16.0513C16.2524 16.5837 16.0659 15.865 16.6254 15.5189C17.1849 15.1728 17.9576 15.8916 18.3039 16.1311C18.9434 16.5837 19.4229 16.8499 19.1299 17.4887C18.9167 17.9413 18.3839 18.5269 17.851 18.6866C17.1316 18.8996 14.9736 17.542 14.494 17.2225C13.5082 16.5571 12.6823 15.7851 12.0162 14.8534C11.51 14.1081 10.6308 12.6174 10.3377 11.6059ZM15.4265 11.6591C16.5455 11.2598 17.5046 12.857 17.1583 13.3627C17.105 13.416 17.0251 13.5225 16.8386 13.416C16.5721 13.2563 16.7586 12.8303 16.4123 12.4311C15.986 11.9253 15.1867 12.3512 15.4265 11.6591Z" fill="#6F3FAA"/>
<path fill-rule="evenodd" clip-rule="evenodd" d="M10.3374 21.6686C10.3374 22.1743 10.2841 23.2657 10.364 23.6916C10.4439 24.224 11.0834 24.5701 11.6162 24.1974L12.6553 23.1859C12.9217 22.8931 13.4812 22.3607 13.6677 22.0679C15.0798 21.988 15.666 22.1743 17.5843 21.9614C18.8898 21.8283 19.8489 21.6952 20.8613 21.1096C21.6873 20.6304 22.4866 19.8585 22.9928 19.1397C23.6589 18.1814 23.8187 17.4095 23.9786 16.0253C24.245 13.8957 24.1917 10.5417 23.2059 8.91791C22.6997 8.06609 21.9803 7.37399 21.1811 6.8416C20.1953 6.17612 19.4493 6.0164 18.0638 5.85669C15.666 5.53725 12.8684 5.59049 10.5505 6.09626C8.76542 6.46893 6.79384 8.41214 6.36756 10.1158C5.80805 12.4583 5.8347 15.1202 6.34091 17.4893C6.5807 18.6074 7.27342 19.4858 7.85956 20.0714C8.39242 20.6038 8.89864 21.0031 9.618 21.3491C9.83114 21.429 10.2041 21.4822 10.3374 21.6686ZM11.0567 23.5852C10.9235 23.2924 11.0034 21.216 11.0034 20.6304C11.0034 20.1513 11.11 20.1513 10.7104 20.0182C9.69793 19.6987 9.00521 18.98 8.49899 18.3145C7.37999 16.9037 7.45992 13.3633 7.72635 11.5798C7.93949 10.169 8.15264 9.66325 8.95193 8.89129C9.75121 8.09271 10.2574 7.74666 11.483 7.53371C13.9342 7.16103 16.2787 7.16103 18.7033 7.56032C20.0088 7.77328 20.4084 8.27905 21.2077 8.99777C22.007 9.74311 22.1935 10.7014 22.3267 11.7928C22.5665 13.6828 22.6198 16.957 21.4475 18.4476C20.9946 19.0066 20.142 19.8318 19.1562 20.0714C18.1438 20.311 16.7583 20.4175 15.666 20.4707C14.4137 20.4973 14.4937 20.311 14.0141 20.8168C13.6944 21.1628 13.4013 21.4556 13.0816 21.8017L12.1224 22.76C11.6429 23.1859 11.3764 23.7183 11.0567 23.5852Z" fill="#FEFEFF"/>
<path fill-rule="evenodd" clip-rule="evenodd" d="M10.3376 11.6057C10.6307 12.6439 11.5099 14.1079 12.0427 14.8267C12.7088 15.785 13.5348 16.5303 14.5205 17.1958C15.0001 17.5152 17.1582 18.8728 17.8776 18.6599C18.3838 18.5001 18.9433 17.9145 19.1564 17.462C19.4495 16.8497 18.9699 16.5569 18.3305 16.1044C17.9841 15.8648 17.2115 15.1195 16.652 15.4922C16.0925 15.8382 16.279 16.5569 15.1333 16.0245C14.5205 15.7317 14.041 15.3857 13.7213 14.9864C13.4015 14.5871 13.0285 14.0547 12.842 13.4425C12.6023 12.6173 13.7213 12.7237 13.6147 11.8453C13.5614 11.446 12.922 10.6474 12.7088 10.3546C12.2559 9.76899 12.0161 9.44956 11.1902 10.0086C10.8438 10.2481 10.1245 10.9136 10.3376 11.6057Z" fill="#FEFEFF"/>
<path fill-rule="evenodd" clip-rule="evenodd" d="M14.6537 9.63615C15.3731 9.92897 16.3589 9.63615 17.5845 10.6743C18.064 11.0736 18.517 11.6858 18.7567 12.3779C18.9433 12.9103 18.9699 14.0017 19.1298 14.2945C19.7159 14.401 19.5294 13.8952 19.4761 13.4161C19.4228 12.9902 19.3695 12.6708 19.263 12.2715C18.8633 10.9937 17.8242 9.95558 16.5987 9.47644C16.2523 9.34334 15.9059 9.26348 15.5063 9.21024C15.0001 9.18362 14.5738 9.07715 14.6537 9.63615Z" fill="#FEFEFF"/>
<path fill-rule="evenodd" clip-rule="evenodd" d="M17.9309 13.8156L18.2506 13.8422C18.6236 13.1501 17.9842 11.8191 17.5845 11.4198C17.025 10.8608 16.1192 10.3018 15.2932 10.3817C15.0268 10.4083 14.8936 10.6212 15.0801 10.8076C15.2666 10.9939 17.025 10.8608 17.6112 12.4314C17.8243 12.8839 17.7977 13.5494 17.9309 13.8156Z" fill="#FEFEFF"/>
<path fill-rule="evenodd" clip-rule="evenodd" d="M16.8384 13.416C17.0249 13.5225 17.0782 13.416 17.1581 13.3627C17.5311 12.857 16.5719 11.2598 15.4263 11.6591C15.1865 12.3512 15.9858 11.9253 16.4121 12.4311C16.7584 12.8304 16.5719 13.2829 16.8384 13.416Z" fill="#FEFEFF"/>
</svg>
