<svg width="60" height="71" viewBox="0 0 60 71" fill="none" xmlns="http://www.w3.org/2000/svg">
<path fill-rule="evenodd" clip-rule="evenodd" d="M13.1999 51.1996C13.8999 51.7996 15.4999 54.4996 16.1999 55.4996C17.0999 56.8996 18.3999 58.0996 20.5999 58.4996C21.2999 57.9996 27.3999 56.1996 28.3999 56.8996C30.2999 56.4996 30.9999 56.8996 32.4999 57.2996C33.7999 57.6996 34.8999 57.9996 36.1999 58.3996H36.8999C37.7999 57.9996 38.3999 57.8996 39.1999 57.2996C40.9999 55.7996 41.9999 53.3996 43.3999 51.4996C45.9999 47.9996 54.1999 48.6996 54.0999 41.7996C54.0999 39.7996 53.4999 37.5996 53.4999 35.5996C53.4999 31.1996 58.9999 27.9996 56.1999 22.8996C55.3999 21.3996 52.6999 19.2996 51.2999 17.7996C47.9999 14.4996 50.2999 6.49961 42.9999 5.69961C36.8999 4.99961 37.6999 6.49961 32.5999 2.59961C29.3999 0.0996094 29.9999 0.999609 28.5999 0.0996094C27.8999 0.399609 27.6999 0.19961 26.4999 0.89961C25.9999 1.19961 25.3999 1.69961 24.7999 2.09961L21.3999 4.59961C18.7999 5.99961 14.2999 4.89961 11.3999 6.39961C8.29987 7.99961 8.19987 11.1996 7.39987 14.1996C6.49987 17.8996 5.49987 17.9996 3.19987 20.1996C1.89987 21.4996 0.499869 22.6996 0.0998689 24.5996C-0.500131 27.6996 1.29987 29.9996 2.79987 33.2996C4.79987 37.3996 0.0998688 43.5996 5.39987 47.1996C7.49987 48.3996 12.0999 49.4996 13.1999 51.1996ZM30.0999 10.0996C32.2999 9.99961 36.2999 11.1996 37.9999 12.0996C40.7999 13.4996 42.9999 15.3996 44.7999 17.4996C52.8999 27.7996 48.2999 42.9996 36.3999 47.2996C34.8999 47.8996 29.4999 49.1996 28.0999 48.4996C22.3999 48.2996 16.1999 44.3996 13.3999 39.5996C11.3999 36.1996 10.2999 32.5996 10.4999 28.2996C10.7999 23.4996 13.1999 18.3996 16.4999 15.3996C17.3999 14.5996 17.9999 14.0996 19.0999 13.2996C19.9999 12.6996 20.9999 12.0996 22.1999 11.6996C25.6999 10.0996 27.0999 10.4996 30.0999 10.0996Z" fill="#FFE076"/>
<path fill-rule="evenodd" clip-rule="evenodd" d="M28.0999 48.4996C29.5999 49.2996 34.8999 47.8996 36.3999 47.2996C48.2999 42.9996 52.7999 27.7996 44.7999 17.4996C43.0999 15.2996 40.7999 13.4996 37.9999 12.0996C36.2999 11.1996 32.2999 9.99961 30.0999 10.0996L28.1999 10.5996C23.3999 11.5996 21.2999 13.2996 18.0999 16.2996C12.8999 21.1996 11.5999 30.1996 14.2999 36.6996C15.2999 39.1996 16.3999 40.5996 17.7999 42.1996C18.7999 43.3996 20.9999 45.2996 22.8999 46.1996C26.9999 48.2996 26.6999 47.5996 29.1999 48.3996L28.0999 48.4996ZM35.3999 22.7996C36.1999 21.9996 37.0999 20.6996 38.9999 21.3996C40.1999 21.7996 41.1999 23.2996 40.5999 24.9996C40.2999 25.7996 38.5999 27.2996 37.9999 27.8996L29.9999 35.9996C26.5999 39.3996 25.2999 36.5996 20.7999 32.0996C20.0999 31.3996 18.5999 30.2996 18.5999 28.7996C18.5999 27.2996 19.7999 25.9996 21.3999 26.0996C23.2999 26.0996 25.1999 29.1996 27.2999 30.8996L35.3999 22.7996Z" fill="#FFD064"/>
<path fill-rule="evenodd" clip-rule="evenodd" d="M27.2 30.9002C25.1 29.2002 23.2 26.1002 21.3 26.1002C19.8 26.1002 18.5 27.3002 18.5 28.8002C18.5 30.3002 20 31.4002 20.7 32.1002C25.2 36.6002 26.5 39.4002 29.9 36.0002L37.9 27.8002C38.5 27.2002 40.1 25.8002 40.5 24.9002C41.2 23.2002 40.1 21.7002 38.9 21.3002C37 20.6002 36.1 22.0002 35.3 22.7002L27.2 30.9002Z" fill="#EBEEEF"/>
<path fill-rule="evenodd" clip-rule="evenodd" d="M28.6001 0.100109C30.0001 1.00011 29.4001 0.100109 32.7001 2.60011C37.7001 6.50011 36.9001 5.00011 43.0001 5.70011C50.3001 6.50011 47.9001 14.5001 51.1001 17.9001C52.5001 19.4001 55.2001 21.5001 56.0001 23.0001C58.8001 28.1001 53.3001 31.4001 53.3001 35.7001C53.3001 37.7001 53.9001 39.9001 53.9001 41.9001C54.0001 48.7001 45.8001 48.0001 43.2001 51.6001C41.8001 53.5001 40.8001 55.9001 39.0001 57.4001C38.3001 58.0001 37.6001 58.1001 36.7001 58.5001C36.7001 58.5001 36.8001 58.5001 36.8001 58.6001H36.9001C37.1001 58.7001 37.0001 58.7001 37.3001 58.7001C37.5001 58.7001 38.0001 58.7001 38.2001 58.7001C42.0001 58.4001 43.0001 55.5001 44.6001 53.4001C45.0001 52.7001 45.7001 51.6001 46.2001 51.2001C47.1001 49.6001 52.2001 48.4001 54.0001 47.0001C57.3001 44.4001 56.4001 41.4001 56.0001 37.8001C55.7001 35.3001 55.7001 34.6001 56.7001 32.7001C58.3001 29.5001 60.2001 27.1001 58.9001 23.7001C58.3001 22.2001 57.3001 21.4001 56.2001 20.3001C52.5001 16.6001 52.8001 18.0001 51.6001 12.9001C51.2001 11.1001 51.0001 9.80011 50.1001 8.40011C49.3001 7.10011 48.2001 6.30011 46.6001 5.90011C42.9001 4.90011 40.5001 6.70011 36.7001 3.80011C36.1001 3.40011 35.6001 3.00011 35.0001 2.50011C34.4001 2.10011 33.9001 1.60011 33.3001 1.20011C32.2001 0.500109 31.2001 0.200109 30.0001 0.100109C29.3001 0.000108507 29.2001 0.100109 28.6001 0.100109Z" fill="#FFD064"/>
<path fill-rule="evenodd" clip-rule="evenodd" d="M15.9002 69.0002C16.0002 68.1002 17.7002 64.8002 18.2002 63.8002C18.6002 62.9002 19.0002 62.1002 19.4002 61.2002C19.8002 60.4002 20.3002 59.4002 20.5002 58.6002L20.4002 58.5002C18.2002 58.1002 16.9002 56.9002 16.0002 55.5002C15.3002 54.5002 13.7002 51.7002 13.0002 51.2002C12.8002 51.6002 12.7002 52.0002 12.5002 52.4002L10.7002 56.2002C10.5002 56.6002 10.3002 57.0002 10.1002 57.4002L7.80018 62.4002C7.60018 62.9002 7.40018 63.2002 7.20018 63.6002C6.70018 65.1002 6.00018 66.1002 7.20018 66.0002C7.60018 66.0002 13.4002 64.9002 13.6002 64.9002C14.3002 66.2002 15.3002 67.5002 15.9002 69.0002Z" fill="#FD646F"/>
<path fill-rule="evenodd" clip-rule="evenodd" d="M36.8001 58.5004H36.1001L41.2001 69.4004C41.5001 70.1004 41.6001 70.4004 42.2001 70.9004C42.9001 70.4004 45.5001 65.7004 45.9001 64.9004L50.4001 65.8004L44.7001 53.4004C43.1001 55.5004 42.1001 58.5004 38.3001 58.7004C38.1001 58.7004 37.6001 58.7004 37.4001 58.7004C37.1001 58.7004 37.2001 58.7004 37.0001 58.6004C37.0001 58.6004 36.9001 58.6004 36.8001 58.5004C36.9001 58.5004 36.9001 58.5004 36.8001 58.5004Z" fill="#FD646F"/>
<path fill-rule="evenodd" clip-rule="evenodd" d="M28.1002 48.4996L29.2002 48.3996C26.7002 47.5996 26.9002 48.2996 22.9002 46.1996C21.1002 45.2996 18.9002 43.3996 17.8002 42.1996C16.4002 40.4996 15.3002 39.0996 14.3002 36.6996C11.6002 30.1996 12.9002 21.1996 18.1002 16.2996C21.3002 13.2996 23.4002 11.5996 28.2002 10.5996L30.1002 10.0996C27.1002 10.4996 25.7002 10.0996 22.2002 11.5996C21.1002 12.0996 20.0002 12.5996 19.1002 13.1996C18.0002 13.9996 17.4002 14.4996 16.5002 15.2996C13.1002 18.1996 10.7002 23.2996 10.5002 28.1996C10.3002 32.4996 11.3002 36.0996 13.4002 39.4996C16.2002 44.3996 22.4002 48.2996 28.1002 48.4996Z" fill="#FFC338"/>
<path fill-rule="evenodd" clip-rule="evenodd" d="M44.7002 53.3L50.4002 65.7C51.1002 65.7 52.6002 66.3 52.9002 65.8C53.2002 65.4 51.1002 61.3 50.7002 60.5L48.3002 55.3C47.9002 54.5 47.7002 54 47.3002 53.2L46.3002 51C45.7002 51.5 45.1002 52.6 44.7002 53.3Z" fill="#FD4755"/>
<path fill-rule="evenodd" clip-rule="evenodd" d="M20.6 58.6004C20.4 59.4004 19.8 60.3004 19.5 61.2004C19.1 62.1004 18.7 62.9004 18.3 63.8004C17.8 64.8004 16.1 68.1004 16 69.0004C16.6 69.7004 16.7 70.7004 17.5 70.9004C17.8 70.7004 17.8 70.6004 18 70.2004L23.4 58.4004C22.4 58.6004 21.6 58.7004 20.6 58.6004Z" fill="#FD4755"/>
<path fill-rule="evenodd" clip-rule="evenodd" d="M20.5 58.6002C21.6 58.8002 22.4 58.7002 23.3 58.4002C24 58.3002 25.1 57.9002 25.8 57.7002C26.7 57.4002 27.5 57.2002 28.3 57.0002C27.3 56.3002 21.3 58.0002 20.5 58.6002Z" fill="#FFD064"/>
</svg>
