<svg width="69" height="72" viewBox="0 0 69 72" fill="none" xmlns="http://www.w3.org/2000/svg">
<path fill-rule="evenodd" clip-rule="evenodd" d="M14.5001 45.7004C17.5001 46.3004 19.4001 47.4004 21.7001 48.7004C24.7001 50.4004 25.6001 50.7004 29.7001 51.1004C32.7001 51.4004 35.9001 51.7004 38.9001 52.2004C41.8001 52.6004 43.8001 54.7004 43.9001 57.8004L44.4001 57.3004C47.2001 54.8004 49.0001 52.9004 50.2001 48.8004C53.4001 38.2004 47.9001 28.5004 41.1001 21.3004C40.4001 20.6004 39.7001 20.1004 39.1001 19.4004C38.6001 18.9004 37.3001 18.0004 37.0001 17.5004C35.8001 17.5004 34.5001 17.3004 33.4001 17.1004C32.9001 17.0004 32.2001 16.9004 31.7001 16.7004C31.0001 16.5004 30.9001 16.2004 30.5001 15.9004C30.0001 16.2004 29.5001 16.7004 28.9001 17.1004C27.3001 18.4004 24.1001 21.3004 22.9001 22.7004L20.3001 25.9004C17.1001 30.1004 15.0001 35.0004 14.4001 40.3004C14.2001 41.4004 14.1001 44.8004 14.5001 45.7004ZM37.1001 24.5004C37.1001 23.3004 36.9001 22.0004 38.3001 22.1004C39.5001 22.2004 39.3001 23.5004 39.3001 24.7004C40.7001 24.8004 43.1001 25.7004 43.2001 26.9004C43.2001 27.8004 42.4001 28.3004 41.5001 27.8004C40.7001 27.4004 40.6001 27.1004 39.3001 26.8004V33.6004C47.3001 35.6004 45.2001 44.5004 39.3001 45.5004C39.3001 46.8004 39.6001 48.4004 38.2001 48.3004C36.9001 48.3004 37.1001 46.8004 37.1001 45.5004C35.4001 45.4004 32.8001 44.7004 32.2001 43.5004C32.0001 42.0004 33.2001 41.9004 34.2001 42.5004C35.0001 43.0004 35.9001 43.3004 37.1001 43.4004V34.9004C32.6001 33.6004 31.3001 29.0004 34.1001 26.2004C36.0001 24.5004 36.6001 25.3004 37.1001 24.5004Z" fill="#EABC6B"/>
<path fill-rule="evenodd" clip-rule="evenodd" d="M9 62.7996C12.4 63.7996 17.9 66.2996 21.7 67.4996C24.8 68.4996 34.7 67.9996 38.6 67.9996C44.2 67.9996 44.8 67.8996 48.8 65.1996L56.9 60.0996C57.9 59.3996 58.6 58.9996 58.9 57.5996C59.1 56.4996 58.6 54.5996 57.8 54.2996L43.8 60.3996C40.8 60.4996 36.3 60.3996 33 60.3996C31.9 60.3996 30.6 60.5996 30.7 59.2996C30.8 58.0996 32.2 58.2996 33.3 58.2996H43.9V57.7996C43.8 54.7996 41.8 52.6996 38.9 52.1996C35.9 51.7996 32.7 51.4996 29.7 51.0996C25.6 50.6996 24.8 50.3996 21.7 48.6996C19.4 47.3996 17.5 46.2996 14.5 45.6996C13.1 45.2996 10.9 45.0996 9.1 45.0996L9 62.7996Z" fill="#FFDCCD"/>
<path fill-rule="evenodd" clip-rule="evenodd" d="M37 17.3998C37.3 17.8998 38.6 18.7998 39.1 19.2998C39.7 19.9998 40.4 20.4998 41.1 21.1998C48 28.3998 53.5 38.0998 50.2 48.6998C48.9 52.8998 47.1 54.6998 44.4 57.1998L43.9 57.6998V58.1998V60.2998L57.9 54.1998C58.2 53.8998 58.9 53.6998 59.3 53.4998C59.6 52.2998 62.5 49.6998 62.5 42.1998C62.5 36.5998 59.8 30.2998 56.7 26.1998C55.6 24.6998 54.7 23.4998 53.4 22.1998C52.8 21.5998 52.6 21.1998 51.7 20.2998C51.3 19.9998 51.1 19.8998 50.7 19.4998C50.3 19.0998 50.2 18.8998 49.8 18.5998L45.8 15.2998C45.3 15.7998 45.1 16.1998 44.3 16.4998C43.7 16.6998 42.8 16.8998 42.1 16.9998C40.4 17.3998 38.5 17.4998 37 17.3998Z" fill="#E8AE4D"/>
<path fill-rule="evenodd" clip-rule="evenodd" d="M59.2 53.5997C58.8 53.7997 58.1 53.9997 57.8 54.2997C58.7 54.5997 59.1 56.4997 58.9 57.5997C58.7 58.9997 58 59.3997 56.9 60.0997L48.8 65.1997C44.7 67.8997 44.2 67.9997 38.6 67.9997C34.7 67.9997 24.8 68.3997 21.7 67.4997C17.8 66.2997 12.3 63.7997 9 62.7997V66.7997C9.6 66.7997 10.6 67.2997 11.2 67.4997C12 67.7997 12.6 67.9997 13.4 68.2997C14.9 68.8997 16.3 69.3997 17.8 69.8997C22.9 71.7997 22 71.7997 28.1 71.7997H28.3H28.5H28.7H28.9H29.1H29.3H29.5H29.7H29.9H30.1H30.3H30.5H30.7H30.9H31H31.2H31.4H31.6H31.8H32H32.2H32.4H32.6H32.8H33H33.2H33.4H33.6H33.8H34H34.2H34.4H34.6H34.8H35H35.2H35.4H35.6H35.8H36H36.2H36.4H36.6H36.8H37H37.2H37.4H37.6H37.8H38H38.2H38.4H38.6H38.8H39H39.2H39.4H39.6H39.8H40H40.2H40.4C45.5 71.7997 46 70.8997 49.6 68.7997L51.5 67.5997C52.1 67.1997 52.7 66.7997 53.4 66.3997C55.1 65.2997 67.6 57.6997 68.2 56.7997C69.2 55.3997 69.2 53.4997 68 52.2997C66 50.0997 63.7 51.5997 61.4 52.5997C60.6 52.9997 59.8 53.2997 59.2 53.5997Z" fill="#FFCABE"/>
<path fill-rule="evenodd" clip-rule="evenodd" d="M9.0998 66.7V62.7V45.1C9.1998 42.7 9.1998 41.3 6.0998 41.4C3.7998 41.4 1.2998 41 0.399805 42.5C-0.100195 43.4 0.0998047 47.6 0.0998047 49C0.0998047 52.3 -0.100195 68.4 0.299805 69.3C1.0998 70.9 3.2998 70.4 5.8998 70.4C8.9998 70.5 9.0998 69.9 9.0998 66.7Z" fill="#407093"/>
<path fill-rule="evenodd" clip-rule="evenodd" d="M37.0998 24.4999C36.5998 25.2999 35.9998 24.3999 34.0998 26.2999C31.2998 29.0999 32.4998 33.7999 37.0998 34.9999V43.4999C35.8998 43.3999 34.9998 43.0999 34.1998 42.5999C33.1998 41.9999 31.9998 42.0999 32.1998 43.5999C32.7998 44.7999 35.3998 45.5999 37.0998 45.5999C37.0998 46.7999 36.7998 48.2999 38.1998 48.3999C39.5998 48.3999 39.1998 46.7999 39.2998 45.5999C45.1998 44.5999 47.2998 35.6999 39.2998 33.6999V26.8999C40.4998 27.0999 40.6998 27.3999 41.4998 27.8999C42.3998 28.3999 43.1998 27.8999 43.1998 26.9999C43.0998 25.7999 40.6998 24.8999 39.2998 24.7999C39.2998 23.5999 39.5998 22.2999 38.2998 22.1999C36.8998 21.9999 37.0998 23.3999 37.0998 24.4999ZM37.0998 26.9999V32.6999C35.8998 32.2999 34.7998 31.4999 34.7998 29.9999C34.7998 28.3999 35.7998 27.2999 37.0998 26.9999ZM39.1998 43.3999V35.9999C43.8998 37.0999 42.7998 42.4999 39.1998 43.3999Z" fill="#FFFFFE"/>
<path fill-rule="evenodd" clip-rule="evenodd" d="M38.0999 2C37.5999 4 36.5999 5.7 35.6999 7.2C35.1999 8 34.6999 8.8 34.2999 9.5C33.9999 10 32.9999 11.2 32.8999 11.7C34.8999 11.9 36.1999 12.4 38.4999 12.3C40.2999 12.2 42.6999 11.5 44.1999 11.7L45.5999 9.5C46.3999 8.3 47.5999 5.9 47.9999 4.5C48.3999 3.1 48.1999 2.4 47.5999 1.5C46.2999 1.4 46.1999 2 44.9999 2C43.7999 2.1 42.9999 1.2 42.0999 1H40.9999C40.7999 1.1 40.5999 1.1 40.2999 1.3C39.2999 1.8 39.6999 2 38.0999 2Z" fill="#E8AE4D"/>
<path fill-rule="evenodd" clip-rule="evenodd" d="M31.2002 11.8C30.8002 12.3 30.3002 12.5 30.0002 13.3C29.7002 14.3 29.9002 14.7 30.1002 15.5L30.3001 15.8C30.7001 16.1 30.9002 16.4 31.5002 16.6C32.0002 16.8 32.7002 16.9 33.2002 17C34.4002 17.2 35.6001 17.4 36.8001 17.4C38.4001 17.5 40.3001 17.3 41.8001 17.1C42.5001 17 43.4001 16.8 44.0001 16.6C44.8001 16.3 45.0001 15.9 45.5001 15.4C45.7001 14.3 45.9001 14.1 45.5001 13C45.2001 12.2 44.7001 12 44.0001 11.6C42.5001 11.4 40.2001 12.1 38.3001 12.2C36.0001 12.3 34.8002 11.8 32.7002 11.6L32.2002 11.5C31.8002 11.6 31.7002 11.7 31.2002 11.8Z" fill="#FFDF7D"/>
<path fill-rule="evenodd" clip-rule="evenodd" d="M32.2998 11.5004L32.7998 11.6004C32.8998 11.1004 33.8998 9.90039 34.1998 9.40039C34.6998 8.70039 35.1998 7.90039 35.5998 7.10039C36.4998 5.60039 37.3998 3.90039 37.9998 1.90039C36.8998 1.90039 36.2998 1.20039 35.3998 0.900391H34.2998C34.0998 1.00039 33.7998 1.10039 33.4998 1.20039C32.7998 1.60039 32.3998 2.00039 31.3998 1.90039C30.2998 1.80039 30.0998 1.30039 29.1998 1.30039C27.5998 2.40039 28.8998 5.30039 29.4998 6.70039C29.6998 7.10039 29.8998 7.50039 30.0998 7.90039L32.2998 11.5004Z" fill="#EABC6B"/>
<path fill-rule="evenodd" clip-rule="evenodd" d="M30.1998 15.5004C29.8998 14.7004 29.6998 14.2004 30.0998 13.3004C30.2998 12.5004 30.7998 12.3004 31.2998 11.8004C27.4998 7.00043 23.3998 10.3004 19.0998 7.90043C18.6998 7.70043 17.9998 7.20043 17.3998 7.80043C16.8998 8.20043 16.8998 8.90043 17.2998 9.30043C18.0998 10.2004 20.9998 11.1004 22.3998 11.1004C24.7998 11.1004 26.4998 10.7004 28.3998 12.0004C28.8998 12.3004 29.2998 12.7004 29.5998 13.1004C25.7998 13.4004 22.8998 13.9004 20.1998 16.2004C19.6998 16.6004 18.3998 18.0004 18.4998 18.8004C18.5998 19.3004 18.9998 19.7004 19.6998 19.7004C20.3998 19.6004 20.4998 19.2004 20.8998 18.8004C21.3998 18.2004 22.3998 17.3004 23.1998 16.9004C25.2998 15.8004 26.9998 15.5004 30.1998 15.5004Z" fill="#FECF64"/>
<path fill-rule="evenodd" clip-rule="evenodd" d="M43.7998 60.3996V58.2996H33.2998C32.1998 58.2996 30.6998 58.0996 30.6998 59.2996C30.5998 60.5996 31.8998 60.3996 32.9998 60.3996C36.2998 60.3996 40.7998 60.4996 43.7998 60.3996Z" fill="#FFCABE"/>
<path fill-rule="evenodd" clip-rule="evenodd" d="M39.2002 43.4C42.8002 42.5 43.8002 37.1 39.2002 36V43.4Z" fill="#EABC6B"/>
<path fill-rule="evenodd" clip-rule="evenodd" d="M37.0998 27C35.7998 27.3 34.7998 28.4 34.7998 30C34.7998 31.6 35.8998 32.3 37.0998 32.7V27Z" fill="#EABC6B"/>
</svg>
