<svg width="72" height="71" viewBox="0 0 72 71" fill="none" xmlns="http://www.w3.org/2000/svg">
<path fill-rule="evenodd" clip-rule="evenodd" d="M42.8999 66C42.7999 64.9 42.3999 64.4 41.5999 64C40.6999 63.5 40.3999 63 39.1999 63.2C37.1999 63.4 34.9999 63.8 32.9999 63.9C32.4999 63.3 31.9999 62.3 31.5999 61.6L28.7999 56.7C28.3999 56.1 27.9999 55.8 29.3999 54.5C26.4999 54.1 22.7999 51.1 21.3999 49.7C19.5999 47.9 17.5999 45.2 16.4999 41.9C11.6999 27.2 24.1999 13.5 38.5999 15.9C42.4999 16.6 44.7999 17.9 47.3999 19.7C49.1999 21 52.4999 24.7 53.0999 26.7H54.2999C54.5999 27.7 55.3999 29.2 55.7999 30.3C56.5999 32 56.6999 33 57.6999 33.6C59.6999 34.7 58.9999 34.6 61.6999 34.3C63.2999 34.1 64.9999 33.9 66.5999 33.8C66.8999 34.6 68.7999 37.8 69.4999 39L70.3999 40.5C70.4999 40.6 70.4999 40.7 70.5999 40.7C70.8999 40.1 70.6999 31.1 70.6999 30.5C69.8999 30.1 62.3999 26.7 62.0999 26.3C61.8999 26.1 61.5999 25.2 61.4999 24.9C60.4999 22.5 60.4999 23.7 61.3999 21.1L62.8999 16.9C63.0999 16.4 63.7999 14.6 63.8999 14.1L56.9999 6.8C56.4999 6.9 54.7999 7.5 54.2999 7.8L48.8999 9.8C47.6999 10.3 47.9999 10 46.2999 9.3C43.9999 8.4 45.0999 9.3 42.9999 5.2C42.5999 4.3 42.1999 3.5 41.7999 2.6C41.2999 1.7 40.9999 0.8 40.4999 0H30.3999C29.2999 2 27.6999 5.7 26.5999 8C26.1999 8.7 26.0999 8.6 24.7999 9.2C21.9999 10.3 23.7999 10.2 19.4999 8.8L13.8999 6.9L6.7999 14C6.8999 14.6 7.0999 14.9 7.2999 15.4L9.5999 22C9.7999 22.5 9.9999 22.8 9.6999 23.4L8.5999 26.1C8.2999 26.5 8.5999 26.3 7.4999 26.8L2.4999 29.2C1.5999 29.6 0.799902 30 -0.100098 30.4V40.6C0.699902 41 1.4999 41.3 2.3999 41.8L8.4999 44.8C8.6999 44.8 8.9999 45.7 9.0999 46C10.2999 48.6 9.9999 47.6 8.6999 51.5L7.2999 55.5C7.0999 56.1 6.8999 56.3 6.7999 57L13.8999 64.1L21.9999 61.3C23.1999 60.9 23.1999 61.1 24.7999 61.7C26.9999 62.7 25.8999 61.6 27.9999 65.9C28.1999 66.3 28.3999 66.7 28.5999 67.2C28.7999 67.6 28.9999 68 29.1999 68.4C29.5999 69.3 29.9999 70.1 30.3999 71H40.5999L42.8999 66Z" fill="#FFCA59"/>
<path fill-rule="evenodd" clip-rule="evenodd" d="M32.4998 48.2996C32.5998 50.4996 32.2998 50.3996 31.2998 51.6996C30.6998 52.4996 29.9998 53.3996 29.3998 54.2996C27.9998 55.6996 28.3998 55.8996 28.7998 56.4996L31.5998 61.3996C32.0998 62.1996 32.4998 63.0996 32.9998 63.6996C34.9998 63.5996 37.1998 63.2996 39.1998 62.9996C40.3998 62.8996 40.6998 63.2996 41.5998 63.7996C42.3998 64.1996 42.7998 64.7996 42.8998 65.7996C43.2998 66.1996 43.2998 66.4996 43.4998 66.8996C43.6998 67.2996 43.8998 67.6996 44.0998 68.1996L45.1998 70.6996H54.4998C54.7998 70.0996 54.9998 69.5996 55.2998 68.9996C55.5998 68.2996 55.7998 67.8996 56.0998 67.1996C56.3998 66.5996 56.5998 65.9996 56.8998 65.3996C57.3998 64.3996 57.0998 64.4996 58.0998 63.8996C60.2998 62.5996 59.1998 62.9996 61.9998 63.1996L66.6998 63.7996C67.1998 62.7996 67.6998 61.7996 68.2998 60.7996L70.7998 56.4996C71.4998 55.4996 71.2998 55.5996 69.8998 53.6996L67.9998 51.1996C67.6998 50.6996 67.1998 50.2996 67.0998 49.6996C66.8998 47.2996 67.1998 47.2996 68.0998 46.0996L70.9998 42.0996C71.4998 41.2996 70.8998 41.2996 70.6998 40.5996C70.5998 40.4996 70.5998 40.4996 70.4998 40.3996L69.5998 38.8996C68.8998 37.6996 66.9998 34.4996 66.6998 33.6996C65.0998 33.7996 63.3998 33.9996 61.7998 34.1996C59.0998 34.4996 59.8998 34.5996 57.7998 33.4996C56.7998 32.9996 56.6998 31.9996 55.8998 30.1996C55.3998 29.1996 54.6998 27.5996 54.3998 26.5996H53.1998H45.1998C44.7998 26.8996 44.8998 26.8996 44.6998 27.3996C44.4998 27.7996 44.4998 27.8996 44.2998 28.2996L42.6998 31.9996C42.3998 32.8996 42.3998 33.0996 41.5998 33.4996C39.0998 34.7996 40.8998 34.3996 37.5998 34.1996L32.8998 33.5996L28.2998 41.6996L31.6998 46.3996C32.2998 47.1996 32.3998 46.8996 32.4998 48.2996ZM48.8998 39.8996C53.9998 39.3996 57.9998 43.1996 58.4998 47.5996C59.0998 52.7996 55.2998 56.9996 50.6998 57.4996C45.4998 58.0996 41.2998 54.1996 40.8998 49.6996C40.3998 44.3996 44.2998 40.3996 48.8998 39.8996Z" fill="#77949E"/>
<path fill-rule="evenodd" clip-rule="evenodd" d="M29.4 54.4003C30 53.5003 30.7 52.6003 31.3 51.8003C32.3 50.5003 32.6 50.6003 32.5 48.4003C30.9 48.3003 28.4 46.8003 27.1 45.8003C24.1 43.4003 21.7 38.9003 22.2 35.0003C22.3 34.3003 22.2 33.8003 22.4 33.2003C22.5 32.5003 22.6 32.1003 22.8 31.5003C25.9 22.2003 36.6 19.8003 43.1 24.7003C43.8 25.2003 44.7 25.9003 45.2 26.6003H53.2C52.6 24.6003 49.3 20.9003 47.5 19.6003C44.9 17.8003 42.5 16.4003 38.7 15.8003C24.3 13.4003 11.8 27.1003 16.6 41.8003C17.7 45.1003 19.6 47.8003 21.5 49.6003C22.8 51.0003 26.5 53.9003 29.4 54.4003Z" fill="#FBA61F"/>
<path fill-rule="evenodd" clip-rule="evenodd" d="M48.9001 39.8999C44.3001 40.3999 40.4001 44.3998 41.0001 49.5998C41.5001 54.1998 45.6001 57.9999 50.8001 57.3999C55.3001 56.8999 59.2001 52.6998 58.6001 47.4998C58.0001 43.1998 54.0001 39.3999 48.9001 39.8999ZM52.6001 45.3999C54.5001 46.5999 54.6001 49.9999 53.0001 51.6999C52.3001 52.4999 51.3001 53.0998 49.9001 53.0998C48.7001 53.0998 47.2001 52.4998 46.8001 51.7998C45.0001 50.4998 45.2001 47.2998 46.7001 45.7998C47.4001 45.0998 48.2001 44.4999 49.6001 44.3999C50.7001 44.1999 52.0001 44.5999 52.6001 45.3999Z" fill="#62808C"/>
<path fill-rule="evenodd" clip-rule="evenodd" d="M46.6999 51.8003C47.4999 51.6003 49.4999 49.6003 49.9999 49.0003C50.7999 48.1003 52.1999 46.7003 52.5999 45.4003C51.9999 44.6003 50.6999 44.2003 49.4999 44.3003C48.0999 44.4003 47.2999 45.0003 46.5999 45.7003C45.0999 47.3003 44.8999 50.5003 46.6999 51.8003Z" fill="#FBA61F"/>
<path fill-rule="evenodd" clip-rule="evenodd" d="M46.7002 51.8004C47.1002 52.5004 48.6002 53.2004 49.8002 53.1004C51.3002 53.1004 52.2002 52.5004 52.9002 51.7004C54.6002 49.9004 54.5002 46.6004 52.5002 45.4004C52.1002 46.7004 50.7002 48.1004 49.9002 49.0004C49.5002 49.5004 47.5002 51.6004 46.7002 51.8004Z" fill="#FFCA59"/>
</svg>
