<svg width="50" height="50" viewBox="0 0 50 50" fill="none" xmlns="http://www.w3.org/2000/svg">
<mask id="mask0_377_106" style="mask-type:luminance" maskUnits="userSpaceOnUse" x="0" y="0" width="51" height="50">
<path d="M0 24.1555V26.0505C0 31.2184 2.92969 38.3236 6.59313 41.9448C6.89402 42.2457 7.11045 42.4199 7.36911 42.7208C11.6343 46.986 17.9688 50.0001 24.1713 50.0001C28.521 50.0001 32.1 49.3984 35.5892 47.6722C40.4562 45.2176 43.7765 42.3301 46.6165 37.5951C47.0018 36.9036 47.308 36.3441 47.6511 35.6156C49.979 30.9228 50.7075 24.1185 49.2453 18.8187C48.3848 15.7201 47.2657 13.2179 45.4551 10.6366C41.2322 4.47636 33.4355 0 25.9397 0C21.5003 0 17.9688 0.559545 14.3951 2.32792C13.6614 2.67104 13.1018 2.97192 12.4156 3.36255C11.7241 3.7479 11.2067 4.09629 10.5627 4.52387C7.84947 6.41894 4.96201 9.47532 3.36783 12.405C2.98248 13.0965 2.67632 13.6561 2.3332 14.3845C1.17188 16.7125 0.00527873 20.7612 0.00527873 24.1607L0 24.1555Z" fill="white"/>
</mask>
<g mask="url(#mask0_377_106)">
<path d="M50.7128 -0.00488281H0V49.953H50.7128V-0.00488281Z" fill="url(#paint0_linear_377_106)"/>
</g>
<path fill-rule="evenodd" clip-rule="evenodd" d="M26.1296 10.0723C33.6254 10.0723 39.9599 16.4015 39.9599 23.8973H37.8906C37.8906 20.2338 35.8214 16.2748 32.8072 14.2952C31.5139 13.4348 30.3526 12.8753 28.8007 12.4846C28.1092 12.3104 26.9056 12.1415 26.1296 12.1415V10.0723ZM26.1719 15.4988C30.8066 15.5199 34.5756 19.2625 34.5756 23.9395H32.5063C32.5063 22.2609 31.7304 20.54 30.6535 19.4631C30.4793 19.2889 30.4371 19.2889 30.2682 19.1622C30.094 19.0355 30.0517 18.988 29.8828 18.8191C28.8904 18.0431 27.5971 17.6156 26.1771 17.6156V15.5041L26.1719 15.4988ZM21.1307 17.9956C21.1307 18.6396 20.228 19.1992 19.7952 19.5898L18.201 21.0098C18.6338 21.9125 18.3752 22.3453 19.8374 24.7999C20.74 26.3096 20.9565 26.3941 21.8644 27.4287C22.7248 28.4211 22.3395 27.8616 22.899 28.4634C23.4164 28.9807 24.5777 29.7989 25.227 30.1842C27.6816 31.6464 28.1144 31.3878 29.0171 31.8206L30.3948 30.2687C31.9468 28.5478 31.6459 28.1572 36.1275 30.8282C37.7217 31.7784 40.567 33.1562 39.7488 34.3597C39.3634 34.9192 38.7563 35.5633 38.2813 35.9961C37.9804 36.297 37.7639 36.429 37.4631 36.7298C36.7293 37.4636 34.8765 38.8413 34.0161 39.4009C33.0659 40.0449 33.0236 40.0027 31.7779 39.744C30.9597 39.5698 30.0992 39.3587 29.3233 39.0525C26.1771 37.8489 22.3025 35.521 19.8902 33.1931C19.3306 32.6336 18.8555 32.2429 18.296 31.6834L16.1423 29.3555C14.1152 27.244 12.0513 23.5436 10.9269 20.7406C10.626 20.0068 10.4096 19.1464 10.2354 18.4127C9.89225 16.7763 9.93448 16.8185 11.0958 15.1821L12.8219 13.0706C12.9961 12.8542 12.9961 12.8119 13.2073 12.5955C13.8091 11.9515 15.5774 9.53911 16.5698 10.2253C17.4725 10.8694 21.1359 16.771 21.1359 17.9798L21.1307 17.9956ZM26.1296 15.4988H26.1719C26.156 15.4988 26.1455 15.4988 26.1296 15.4988Z" fill="white"/>
<defs>
<linearGradient id="paint0_linear_377_106" x1="25.0001" y1="-0.00488281" x2="25.0001" y2="48.9976" gradientUnits="userSpaceOnUse">
<stop stop-color="#1E90FF"/>
<stop offset="1" stop-color="#125699"/>
</linearGradient>
</defs>
</svg>
